<svg version="1.1" xmlns="http://www.w3.org/2000/svg" xmlns:xlink="http://www.w3.org/1999/xlink" width="600" height="200"><defs/><g><g transform="translate(0,60)"><g><path fill="none" stroke="#000000" paint-order="fill stroke markers" d=" M 11.333333333333334 10 A 1.3333333333333333 1.3333333333333333 0 1 1 11.333332666666722 9.998666666888887" stroke-linecap="round" stroke-miterlimit="10" stroke-width="2.857142857142857" stroke-dasharray=""/></g></g><g transform="translate(0,40)"><g transform="translate(20,20)"><path fill="none" stroke="#000000" paint-order="fill stroke markers" d=" M 20 10 A 10 10 0 1 0 0 10.000000000000002 M 0 10 L 0 20 M 20 10 L 20 20" stroke-linecap="round" stroke-miterlimit="10" stroke-width="3" stroke-dasharray=""/></g><g transform="translate(20,40)"><path fill="none" stroke="#000000" paint-order="fill stroke markers" d=" M 20 0 L 20 20" stroke-linecap="round" stroke-miterlimit="10" stroke-width="3" stroke-dasharray=""/></g><g transform="translate(20,60)"><path fill="none" stroke="#000000" paint-order="fill stroke markers" d=" M 20 10 A 10 10 0 1 0 0 10.000000000000002 M 0 10 L 0 20 M 20 0 L 20 20" stroke-linecap="round" stroke-miterlimit="10" stroke-width="3" stroke-dasharray=""/></g></g><g transform="translate(20,0)"><g><g transform="translate(20,20)"><path fill="none" stroke="#000000" paint-order="fill stroke markers" d=" M 20 10 A 10 10 0 1 0 0 10.000000000000002 M 0 10 L 0 20 M 20 10 L 20 20" stroke-linecap="round" stroke-miterlimit="10" stroke-width="3" stroke-dasharray=""/></g><g transform="translate(20,40)"><path fill="none" stroke="#000000" paint-order="fill stroke markers" d=" M 0 0 L 0 20" stroke-linecap="round" stroke-miterlimit="10" stroke-width="3" stroke-dasharray=""/></g><g transform="translate(20,60)"><path fill="none" stroke="#000000" paint-order="fill stroke markers" d=" M 20 10 A 10 10 0 0 1 0 10.000000000000002 M 0 10 L 0 0 M 20 10 L 20 0" stroke-linecap="round" stroke-miterlimit="10" stroke-width="3" stroke-dasharray=""/></g></g><g transform="translate(20,0)"><g><g transform="translate(20,20)"><path fill="none" stroke="#000000" paint-order="fill stroke markers" d=" M 20 10 A 10 10 0 1 0 0 10.000000000000002 M 0 10 L 0 20 M 20 10 L 20 20" stroke-linecap="round" stroke-miterlimit="10" stroke-width="3" stroke-dasharray=""/></g><g transform="translate(20,40)"><path fill="none" stroke="#000000" paint-order="fill stroke markers" d=" M 20 0 L 0 20" stroke-linecap="round" stroke-miterlimit="10" stroke-width="3" stroke-dasharray=""/></g><g transform="translate(20,60)"><path fill="none" stroke="#000000" paint-order="fill stroke markers" d=" M 20 10 A 10 10 0 0 1 0 10.000000000000002 M 0 10 L 0 0 M 20 10 L 20 0" stroke-linecap="round" stroke-miterlimit="10" stroke-width="3" stroke-dasharray=""/></g></g><g transform="translate(20,0)"><g><g transform="translate(20,20)"><path fill="none" stroke="#000000" paint-order="fill stroke markers" d=" M 20 10 A 10 10 0 1 0 0 10.000000000000002 M 0 10 L 0 20 M 20 10 L 20 20" stroke-linecap="round" stroke-miterlimit="10" stroke-width="3" stroke-dasharray=""/></g><g transform="translate(20,40)"><path fill="none" stroke="#000000" paint-order="fill stroke markers" d=" M 0 0 L 20 20" stroke-linecap="round" stroke-miterlimit="10" stroke-width="3" stroke-dasharray=""/></g><g transform="translate(20,60)"><path fill="none" stroke="#000000" paint-order="fill stroke markers" d=" M 20 10 A 10 10 0 1 0 19.999995000000418 10.009999998333337 M 20 0 L 20 10" stroke-linecap="round" stroke-miterlimit="10" stroke-width="3" stroke-dasharray=""/></g></g><g transform="translate(20,0)"><g transform="translate(20,60)"><g><path fill="none" stroke="#000000" paint-order="fill stroke markers" d=" M 11.333333333333334 10 A 1.3333333333333333 1.3333333333333333 0 1 1 11.333332666666722 9.998666666888887" stroke-linecap="round" stroke-miterlimit="10" stroke-width="2.857142857142857" stroke-dasharray=""/></g><g transform="translate(20,0)"/></g></g></g></g></g></g></svg>