<svg version="1.1" viewBox="0.0 0.0 281.43569553805776 120.68766404199475" fill="none" stroke="none" stroke-linecap="square" stroke-miterlimit="10" xmlns:xlink="http://www.w3.org/1999/xlink" xmlns="http://www.w3.org/2000/svg"><clipPath id="p.0"><path d="m0 0l281.4357 0l0 120.68767l-281.4357 0l0 -120.68767z" clip-rule="nonzero"/></clipPath><g clip-path="url(#p.0)"><path fill="#000000" fill-opacity="0.0" d="m0 0l281.4357 0l0 120.68767l-281.4357 0z" fill-rule="evenodd"/><path fill="#000000" fill-opacity="0.0" d="m182.3186 79.09966l0 0c-6.1031647 0.375 -11.926758 -2.6012344 -15.19812 -7.7672195c-3.2713623 -5.165985 -3.4720001 -11.702957 -0.5236206 -17.059845c2.9483795 -5.3568916 8.578491 -8.684673 14.693161 -8.684673l0 16.771656z" fill-rule="evenodd"/><path fill="#000000" fill-opacity="0.0" d="m182.3186 79.09966l0 0c-6.1031647 0.375 -11.926758 -2.6012344 -15.19812 -7.7672195c-3.2713623 -5.165985 -3.4720001 -11.702957 -0.5236206 -17.059845c2.9483795 -5.3568916 8.578491 -8.684673 14.693161 -8.684673" fill-rule="evenodd"/><path stroke="#000000" stroke-width="4.0" stroke-linejoin="round" stroke-linecap="butt" d="m182.3186 79.09966l0 0c-6.1031647 0.375 -11.926758 -2.6012344 -15.19812 -7.7672195c-3.2713623 -5.165985 -3.4720001 -11.702957 -0.5236206 -17.059845c2.9483795 -5.3568916 8.578491 -8.684673 14.693161 -8.684673" fill-rule="evenodd"/><path fill="#000000" fill-opacity="0.0" d="m182.3186 79.09966l21.070862 0" fill-rule="evenodd"/><path stroke="#000000" stroke-width="4.0" stroke-linejoin="round" stroke-linecap="butt" d="m182.3186 79.09966l21.070862 0" fill-rule="evenodd"/><path fill="#000000" fill-opacity="0.0" d="m200.1276 45.650993l0 0c6.1031647 -0.3750038 11.926758 2.6012306 15.19812 7.7672195c3.2713623 5.165985 3.4720001 11.702957 0.5236206 17.059845c-2.9483795 5.356888 -8.578491 8.6846695 -14.693161 8.6846695l0 -16.771652z" fill-rule="evenodd"/><path fill="#000000" fill-opacity="0.0" d="m200.1276 45.650993l0 0c6.1031647 -0.3750038 11.926758 2.6012306 15.19812 7.7672195c3.2713623 5.165985 3.4720001 11.702957 0.5236206 17.059845c-2.9483795 5.356888 -8.578491 8.6846695 -14.693161 8.6846695" fill-rule="evenodd"/><path stroke="#000000" stroke-width="4.0" stroke-linejoin="round" stroke-linecap="butt" d="m200.1276 45.650993l0 0c6.1031647 -0.3750038 11.926758 2.6012306 15.19812 7.7672195c3.2713623 5.165985 3.4720001 11.702957 0.5236206 17.059845c-2.9483795 5.356888 -8.578491 8.6846695 -14.693161 8.6846695" fill-rule="evenodd"/><path fill="#000000" fill-opacity="0.0" d="m201.83649 64.19051l0 0c-3.7990723 0.16848755 -7.4023743 -1.5039139 -9.412888 -4.368782c-2.0105133 -2.864872 -2.1120605 -6.471691 -0.2652588 -9.422039c1.8467865 -2.9503517 5.3515015 -4.7802696 9.155304 -4.7802696l0 9.29134z" fill-rule="evenodd"/><path fill="#000000" fill-opacity="0.0" d="m201.83649 64.19051l0 0c-3.7990723 0.16848755 -7.4023743 -1.5039139 -9.412888 -4.368782c-2.0105133 -2.864872 -2.1120605 -6.471691 -0.2652588 -9.422039c1.8467865 -2.9503517 5.3515015 -4.7802696 9.155304 -4.7802696" fill-rule="evenodd"/><path stroke="#000000" stroke-width="4.0" stroke-linejoin="round" stroke-linecap="butt" d="m201.83649 64.19051l0 0c-3.7990723 0.16848755 -7.4023743 -1.5039139 -9.412888 -4.368782c-2.0105133 -2.864872 -2.1120605 -6.471691 -0.2652588 -9.422039c1.8467865 -2.9503517 5.3515015 -4.7802696 9.155304 -4.7802696" fill-rule="evenodd"/><path fill="#000000" fill-opacity="0.0" d="m182.00394 19.627296l8.629929 8.629921" fill-rule="evenodd"/><path stroke="#000000" stroke-width="4.0" stroke-linejoin="round" stroke-linecap="butt" d="m182.00394 19.627296l8.629929 8.629921" fill-rule="evenodd"/><path fill="#000000" fill-opacity="0.0" d="m188.13255 28.194225l8.503937 -8.503937" fill-rule="evenodd"/><path stroke="#000000" stroke-width="4.0" stroke-linejoin="round" stroke-linecap="butt" d="m188.13255 28.194225l8.503937 -8.503937" fill-rule="evenodd"/><path fill="#000000" fill-opacity="0.0" d="m273.90945 62.540684l0 0c0 -9.26273 -7.5089417 -16.771656 -16.771667 -16.771656l0 0c-4.448105 0 -8.71405 1.7670097 -11.8593445 4.912304c-3.1452942 3.1452942 -4.9123077 7.411232 -4.9123077 11.859352l0 0c0 9.26273 7.5089264 16.771648 16.771652 16.771648l0 0c9.262726 0 16.771667 -7.508919 16.771667 -16.771648z" fill-rule="evenodd"/><path stroke="#000000" stroke-width="4.0" stroke-linejoin="round" stroke-linecap="butt" d="m273.90945 62.540684l0 0c0 -9.26273 -7.5089417 -16.771656 -16.771667 -16.771656l0 0c-4.448105 0 -8.71405 1.7670097 -11.8593445 4.912304c-3.1452942 3.1452942 -4.9123077 7.411232 -4.9123077 11.859352l0 0c0 9.26273 7.5089264 16.771648 16.771652 16.771648l0 0c9.262726 0 16.771667 -7.508919 16.771667 -16.771648z" fill-rule="evenodd"/><path fill="#000000" fill-opacity="0.0" d="m224.58136 81.56431l0 -37.354336" fill-rule="evenodd"/><path stroke="#000000" stroke-width="4.0" stroke-linejoin="round" stroke-linecap="butt" d="m224.58136 81.56431l0 -37.354336" fill-rule="evenodd"/><path fill="#000000" fill-opacity="0.0" d="m260.07123 44.63162l0 0c0.16906738 -5.747608 -3.1158752 -11.132324 -8.598343 -14.094433c-5.4824524 -2.9621086 -12.314087 -3.043274 -17.88173 -0.21245003c-5.567642 2.830824 -9.009796 8.135618 -9.009796 13.885237l17.748032 0z" fill-rule="evenodd"/><path fill="#000000" fill-opacity="0.0" d="m260.07123 44.63162l0 0c0.16906738 -5.747608 -3.1158752 -11.132324 -8.598343 -14.094433c-5.4824524 -2.9621086 -12.314087 -3.043274 -17.88173 -0.21245003c-5.567642 2.830824 -9.009796 8.135618 -9.009796 13.885237" fill-rule="evenodd"/><path stroke="#000000" stroke-width="4.0" stroke-linejoin="round" stroke-linecap="butt" d="m260.07123 44.63162l0 0c0.16906738 -5.747608 -3.1158752 -11.132324 -8.598343 -14.094433c-5.4824524 -2.9621086 -12.314087 -3.043274 -17.88173 -0.21245003c-5.567642 2.830824 -9.009796 8.135618 -9.009796 13.885237" fill-rule="evenodd"/><path fill="#000000" fill-opacity="0.0" d="m7.5262465 62.704723l0 0c0 -9.262726 7.508925 -16.771652 16.771654 -16.771652l0 0c4.448118 0 8.714054 1.7670097 11.859348 4.912304c3.1452942 3.1452942 4.912304 7.411232 4.912304 11.859348l0 0c0 9.26273 -7.5089264 16.771656 -16.771652 16.771656l0 0c-9.26273 0 -16.771654 -7.5089264 -16.771654 -16.771656z" fill-rule="evenodd"/><path stroke="#000000" stroke-width="4.0" stroke-linejoin="round" stroke-linecap="butt" d="m7.5262465 62.704723l0 0c0 -9.262726 7.508925 -16.771652 16.771654 -16.771652l0 0c4.448118 0 8.714054 1.7670097 11.859348 4.912304c3.1452942 3.1452942 4.912304 7.411232 4.912304 11.859348l0 0c0 9.26273 -7.5089264 16.771656 -16.771652 16.771656l0 0c-9.26273 0 -16.771654 -7.5089264 -16.771654 -16.771656z" fill-rule="evenodd"/><path fill="#000000" fill-opacity="0.0" d="m61.322834 111.70473l0 -55.84252" fill-rule="evenodd"/><path stroke="#000000" stroke-width="4.0" stroke-linejoin="round" stroke-linecap="butt" d="m61.322834 111.70473l0 -55.84252" fill-rule="evenodd"/><path fill="#000000" fill-opacity="0.0" d="m61.32243 56.957832l0 0c0.09350586 -3.934433 -1.9355545 -7.6153107 -5.3122406 -9.636826c-3.376686 -2.021515 -7.5794754 -2.0714493 -11.003239 -0.13072968c-3.4237595 1.9407158 -5.5397034 5.5723457 -5.5397034 9.507889l10.929134 0z" fill-rule="evenodd"/><path fill="#000000" fill-opacity="0.0" d="m61.32243 56.957832l0 0c0.09350586 -3.934433 -1.9355545 -7.6153107 -5.3122406 -9.636826c-3.376686 -2.021515 -7.5794754 -2.0714493 -11.003239 -0.13072968c-3.4237595 1.9407158 -5.5397034 5.5723457 -5.5397034 9.507889" fill-rule="evenodd"/><path stroke="#000000" stroke-width="4.0" stroke-linejoin="round" stroke-linecap="butt" d="m61.32243 56.957832l0 0c0.09350586 -3.934433 -1.9355545 -7.6153107 -5.3122406 -9.636826c-3.376686 -2.021515 -7.5794754 -2.0714493 -11.003239 -0.13072968c-3.4237595 1.9407158 -5.5397034 5.5723457 -5.5397034 9.507889" fill-rule="evenodd"/><path fill="#000000" fill-opacity="0.0" d="m115.24271 61.677464l0 0c0.42134857 6.8573723 -3.3821335 13.278255 -9.598457 16.20374c-6.216316 2.925476 -13.588219 1.7638702 -18.603714 -2.9314346c-5.0154953 -4.695305 -6.6601944 -11.974678 -4.1505585 -18.370205c2.509636 -6.3955307 8.666031 -10.613716 15.5362625 -10.645004l0.0763855 16.771477z" fill-rule="evenodd"/><path fill="#000000" fill-opacity="0.0" d="m115.24271 61.677464l0 0c0.42134857 6.8573723 -3.3821335 13.278255 -9.598457 16.20374c-6.216316 2.925476 -13.588219 1.7638702 -18.603714 -2.9314346c-5.0154953 -4.695305 -6.6601944 -11.974678 -4.1505585 -18.370205c2.509636 -6.3955307 8.666031 -10.613716 15.5362625 -10.645004" fill-rule="evenodd"/><path stroke="#000000" stroke-width="4.0" stroke-linejoin="round" stroke-linecap="butt" d="m115.24271 61.677464l0 0c0.42134857 6.8573723 -3.3821335 13.278255 -9.598457 16.20374c-6.216316 2.925476 -13.588219 1.7638702 -18.603714 -2.9314346c-5.0154953 -4.695305 -6.6601944 -11.974678 -4.1505585 -18.370205c2.509636 -6.3955307 8.666031 -10.613716 15.5362625 -10.645004" fill-rule="evenodd"/><path fill="#000000" fill-opacity="0.0" d="m99.43936 45.93456l-32.503937 0" fill-rule="evenodd"/><path stroke="#000000" stroke-width="4.0" stroke-linejoin="round" stroke-linecap="butt" d="m99.43936 45.93456l-32.503937 0" fill-rule="evenodd"/><path fill="#000000" fill-opacity="0.0" d="m131.44589 81.07867l9.385834 0.15747833" fill-rule="evenodd"/><path stroke="#000000" stroke-width="4.0" stroke-linejoin="round" stroke-linecap="butt" d="m131.44589 81.07867l9.385834 0.15747833" fill-rule="evenodd"/><path fill="#000000" fill-opacity="0.0" d="m138.71027 47.5985l0 0c6.1031647 -0.375 11.926758 2.6012306 15.19812 7.7672195c3.2713623 5.165985 3.4720001 11.702961 0.5236206 17.059849c-2.9483795 5.356888 -8.578491 8.6846695 -14.693161 8.6846695l0 -16.771652z" fill-rule="evenodd"/><path fill="#000000" fill-opacity="0.0" d="m138.71027 47.5985l0 0c6.1031647 -0.375 11.926758 2.6012306 15.19812 7.7672195c3.2713623 5.165985 3.4720001 11.702961 0.5236206 17.059849c-2.9483795 5.356888 -8.578491 8.6846695 -14.693161 8.6846695" fill-rule="evenodd"/><path stroke="#000000" stroke-width="4.0" stroke-linejoin="round" stroke-linecap="butt" d="m138.71027 47.5985l0 0c6.1031647 -0.375 11.926758 2.6012306 15.19812 7.7672195c3.2713623 5.165985 3.4720001 11.702961 0.5236206 17.059849c-2.9483795 5.356888 -8.578491 8.6846695 -14.693161 8.6846695" fill-rule="evenodd"/><path fill="#000000" fill-opacity="0.0" d="m140.41916 66.13802l0 0c-3.799057 0.16847992 -7.4023743 -1.5039139 -9.412888 -4.368786c-2.0105133 -2.8648682 -2.1120605 -6.4716873 -0.2652588 -9.422039c1.8468018 -2.9503517 5.3515167 -4.7802696 9.155319 -4.7802696l0 9.29134z" fill-rule="evenodd"/><path fill="#000000" fill-opacity="0.0" d="m140.41916 66.13802l0 0c-3.799057 0.16847992 -7.4023743 -1.5039139 -9.412888 -4.368786c-2.0105133 -2.8648682 -2.1120605 -6.4716873 -0.2652588 -9.422039c1.8468018 -2.9503517 5.3515167 -4.7802696 9.155319 -4.7802696" fill-rule="evenodd"/><path stroke="#000000" stroke-width="4.0" stroke-linejoin="round" stroke-linecap="butt" d="m140.41916 66.13802l0 0c-3.799057 0.16847992 -7.4023743 -1.5039139 -9.412888 -4.368786c-2.0105133 -2.8648682 -2.1120605 -6.4716873 -0.2652588 -9.422039c1.8468018 -2.9503517 5.3515167 -4.7802696 9.155319 -4.7802696" fill-rule="evenodd"/><path fill="#000000" fill-opacity="0.0" d="m133.24643 81.07867l0 0c-4.6307373 0.28453064 -9.172447 -1.3618393 -12.545189 -4.5476227c-3.372734 -3.1857758 -5.2751617 -7.6263275 -5.254883 -12.265747l16.771492 0.073287964z" fill-rule="evenodd"/><path fill="#000000" fill-opacity="0.0" d="m133.24643 81.07867l0 0c-4.6307373 0.28453064 -9.172447 -1.3618393 -12.545189 -4.5476227c-3.372734 -3.1857758 -5.2751617 -7.6263275 -5.254883 -12.265747" fill-rule="evenodd"/><path stroke="#000000" stroke-width="4.0" stroke-linejoin="round" stroke-linecap="butt" d="m133.24643 81.07867l0 0c-4.6307373 0.28453064 -9.172447 -1.3618393 -12.545189 -4.5476227c-3.372734 -3.1857758 -5.2751617 -7.6263275 -5.254883 -12.265747" fill-rule="evenodd"/><path fill="#000000" fill-opacity="0.0" d="m148.8253 50.277252l0 0c-3.6983337 -1.7267303 -5.5925293 -5.469158 -4.5903015 -9.069195c1.0022125 -3.6000404 4.6424103 -6.129318 8.821442 -6.129318l0 8.062992z" fill-rule="evenodd"/><path fill="#000000" fill-opacity="0.0" d="m148.8253 50.277252l0 0c-3.6983337 -1.7267303 -5.5925293 -5.469158 -4.5903015 -9.069195c1.0022125 -3.6000404 4.6424103 -6.129318 8.821442 -6.129318" fill-rule="evenodd"/><path stroke="#000000" stroke-width="4.0" stroke-linejoin="round" stroke-linecap="butt" d="m148.8253 50.277252l0 0c-3.6983337 -1.7267303 -5.5925293 -5.469158 -4.5903015 -9.069195c1.0022125 -3.6000404 4.6424103 -6.129318 8.821442 -6.129318" fill-rule="evenodd"/><path fill="#000000" fill-opacity="0.0" d="m151.3829 35.078667l66.14174 0" fill-rule="evenodd"/><path stroke="#000000" stroke-width="4.0" stroke-linejoin="round" stroke-linecap="butt" d="m151.3829 35.078667l66.14174 0" fill-rule="evenodd"/><path fill="#000000" d="m26.10761 86.8135l0 0c0 -1.000206 -0.81082153 -1.8110275 -1.8110237 -1.8110275l0 0c-0.48031235 0 -0.9409542 0.19080353 -1.2805862 0.5304413c-0.33963203 0.33963013 -0.53043556 0.8002701 -0.53043556 1.2805862l0 0c0 1.0001984 0.81082153 1.8110199 1.8110218 1.8110199l0 0c1.0002022 0 1.8110237 -0.81082153 1.8110237 -1.8110199z" fill-rule="evenodd"/><path fill="#000000" fill-opacity="0.0" d="m192.70473 103.30315l0 -25.165352" fill-rule="evenodd"/><path stroke="#000000" stroke-width="4.0" stroke-linejoin="round" stroke-linecap="butt" d="m192.70473 103.30315l0 -25.165352" fill-rule="evenodd"/><path fill="#000000" fill-opacity="0.0" d="m192.70299 102.533844l0 0c0.09837341 4.8631897 -3.4068146 8.926895 -7.890259 9.147507c-4.483444 0.22061157 -8.301315 -3.4827576 -8.594101 -8.336372c-0.2928009 -4.8536224 3.046814 -9.077927 7.517563 -9.509026l0.71681213 8.909706z" fill-rule="evenodd"/><path fill="#000000" fill-opacity="0.0" d="m192.70299 102.533844l0 0c0.09837341 4.8631897 -3.4068146 8.926895 -7.890259 9.147507c-4.483444 0.22061157 -8.301315 -3.4827576 -8.594101 -8.336372c-0.2928009 -4.8536224 3.046814 -9.077927 7.517563 -9.509026" fill-rule="evenodd"/><path stroke="#000000" stroke-width="4.0" stroke-linejoin="round" stroke-linecap="butt" d="m192.70299 102.533844l0 0c0.09837341 4.8631897 -3.4068146 8.926895 -7.890259 9.147507c-4.483444 0.22061157 -8.301315 -3.4827576 -8.594101 -8.336372c-0.2928009 -4.8536224 3.046814 -9.077927 7.517563 -9.509026" fill-rule="evenodd"/><path fill="#000000" fill-opacity="0.0" d="m235.71512 15.595696l0 0c0 -3.6529074 2.9612732 -6.614174 6.6141663 -6.614174l0 0c1.7541962 0 3.4365387 0.69684887 4.676941 1.9372463c1.240387 1.2403984 1.9372406 2.922739 1.9372406 4.6769276l0 0c0 3.6529074 -2.9612732 6.614173 -6.6141815 6.614173l0 0c-3.652893 0 -6.6141663 -2.9612656 -6.6141663 -6.614173z" fill-rule="evenodd"/><path stroke="#000000" stroke-width="4.0" stroke-linejoin="round" stroke-linecap="butt" d="m235.71512 15.595696l0 0c0 -3.6529074 2.9612732 -6.614174 6.6141663 -6.614174l0 0c1.7541962 0 3.4365387 0.69684887 4.676941 1.9372463c1.240387 1.2403984 1.9372406 2.922739 1.9372406 4.6769276l0 0c0 3.6529074 -2.9612732 6.614173 -6.6141815 6.614173l0 0c-3.652893 0 -6.6141663 -2.9612656 -6.6141663 -6.614173z" fill-rule="evenodd"/></g></svg>