<?xml version="1.0" standalone="no"?>
<!DOCTYPE svg PUBLIC "-//W3C//DTD SVG 20010904//EN"
 "http://www.w3.org/TR/2001/REC-SVG-20010904/DTD/svg10.dtd">
<svg version="1.0" xmlns="http://www.w3.org/2000/svg"
 width="1126.146460pt" height="1106.120401pt" viewBox="0 0 1126.146460 1106.120401"
 preserveAspectRatio="xMidYMid meet">
<metadata>
Created by Potrace Professional 1.1m
</metadata>
<g transform="translate(-47.803337,1145.945415) rotate(-360.00) scale(0.095238,-0.095238)"
fill="#000000" stroke="none">
<path d="M7135 12010 c-34 -11 -67 -24 -72 -29 -5 -5 -15 -7 -22 -4 -7 2 -25
-12 -38 -33 -14 -20 -33 -39 -43 -42 -9 -3 -62 -51 -119 -105 -56 -55 -106
-100 -110 -100 -22 0 -44 -77 -41 -147 1 -41 -1 -77 -5 -81 -4 -3 -7 2 -7 12
0 10 -5 15 -10 11 -6 -3 -11 -22 -11 -42 0 -20 5 -36 11 -36 11 0 14 -62 4
-89 -10 -24 -25 -9 -25 25 0 16 -6 32 -14 35 -15 6 -17 -113 -2 -190 l8 -45
31 29 c27 25 30 26 20 7 -7 -13 -12 -32 -12 -44 0 -11 -7 -26 -17 -34 -12 -10
-14 -23 -9 -51 4 -20 11 -42 16 -47 6 -6 10 -28 10 -50 0 -22 4 -40 10 -40 11
0 27 -41 23 -57 -13 -46 -21 -189 -12 -200 6 -7 8 -21 4 -30 -7 -18 45 -133
67 -147 7 -4 13 -15 13 -23 0 -22 75 -97 109 -110 48 -18 121 -13 150 10 14
11 32 18 40 15 8 -3 17 0 21 6 11 18 45 13 50 -7 3 -10 18 -26 35 -34 17 -9
34 -21 38 -26 4 -6 18 -1 32 13 30 27 52 29 114 7 33 -12 63 -14 109 -9 124
14 136 10 149 -51 3 -16 13 -29 21 -29 8 0 23 -6 35 -13 16 -10 28 -10 55 0
48 17 81 16 88 -3 4 -10 15 -14 34 -10 31 5 92 -11 117 -32 16 -13 44 -20 152
-36 115 -17 137 -23 160 -38 13 -8 34 -15 48 -15 13 0 59 -17 102 -38 43 -21
96 -44 118 -52 22 -8 57 -28 79 -45 22 -17 77 -52 123 -78 151 -84 220 -124
237 -140 9 -8 21 -15 27 -15 5 0 49 -31 99 -68 49 -37 124 -93 168 -124 43
-31 93 -73 110 -92 18 -20 48 -48 68 -62 19 -14 64 -55 99 -89 35 -35 104
-102 153 -149 93 -90 175 -179 231 -250 92 -119 177 -241 173 -248 -3 -5 4
-24 16 -43 11 -19 21 -42 21 -52 0 -9 28 -41 63 -71 35 -30 63 -60 63 -66 0
-21 72 -174 126 -264 29 -50 42 -84 42 -112 0 -23 7 -45 16 -53 25 -21 38 -50
41 -95 2 -23 10 -50 19 -60 21 -24 74 -129 103 -201 12 -32 27 -65 32 -74 18
-29 32 -68 36 -97 3 -29 6 -38 52 -181 27 -81 45 -165 52 -231 2 -18 11 -65
22 -105 10 -41 20 -119 21 -173 4 -107 17 -239 41 -399 32 -216 43 -361 42
-573 -2 -329 -13 -396 -143 -876 -24 -87 -42 -171 -66 -300 -9 -46 -26 -106
-37 -133 -12 -27 -21 -55 -21 -63 0 -8 -22 -56 -47 -108 -26 -52 -47 -102 -47
-110 0 -14 1 -14 10 0 7 11 10 11 10 2 0 -8 -6 -16 -14 -19 -9 -4 -22 -23 -31
-45 -8 -21 -25 -47 -38 -58 -12 -12 -29 -45 -38 -76 -9 -30 -30 -72 -47 -94
-17 -21 -31 -45 -31 -53 0 -8 -25 -52 -57 -97 -31 -45 -74 -115 -96 -155 -63
-115 -161 -266 -217 -335 -28 -34 -65 -79 -82 -99 -82 -101 -180 -213 -241
-278 -170 -179 -198 -207 -258 -254 -91 -73 -168 -138 -235 -198 -65 -59 -121
-102 -184 -143 -321 -207 -394 -252 -445 -275 -26 -11 -70 -37 -98 -57 -47
-34 -160 -77 -418 -158 -93 -30 -269 -72 -383 -92 -52 -9 -130 -23 -173 -32
-44 -8 -134 -19 -200 -26 -66 -6 -141 -15 -166 -20 -36 -7 -46 -5 -54 9 -17
32 -15 59 8 110 13 28 23 55 23 60 0 5 4 10 10 10 14 0 31 94 22 119 -5 12 -7
46 -4 76 3 42 0 58 -17 77 -15 17 -22 40 -21 70 0 25 -6 80 -12 122 -10 68
-17 83 -53 123 -33 35 -41 51 -36 70 4 14 1 36 -7 49 -23 41 -39 96 -39 131 0
19 -8 49 -16 65 -11 21 -12 32 -4 34 12 4 -35 90 -57 104 -6 4 -7 12 -3 18 3
6 1 14 -4 18 -6 3 -8 11 -5 17 3 5 1 17 -6 25 -10 11 -10 15 -1 15 9 0 9 6 1
22 -22 41 -97 135 -112 140 -8 4 -12 11 -9 17 4 6 3 17 -3 24 -6 7 -11 16 -11
21 -1 4 -9 19 -18 33 -9 14 -18 32 -19 40 -1 7 -6 19 -10 26 -5 8 -3 14 4 14
6 0 8 5 3 13 -8 12 -11 31 -18 107 -3 29 -11 58 -25 83 -3 5 -1 7 6 3 16 -10
20 22 10 76 -4 25 -4 51 0 57 12 19 12 84 0 99 -6 7 -7 21 -2 31 4 10 7 22 6
27 -1 4 8 8 21 8 15 -1 20 4 16 15 -4 9 -1 16 5 16 6 0 9 6 6 13 -2 7 -1 24 4
37 5 14 4 25 -2 29 -7 5 -4 15 7 27 10 11 13 20 7 20 -20 0 -24 34 -8 59 9 14
12 25 7 25 -36 0 -6 104 35 125 22 11 26 16 15 23 -8 5 -10 9 -4 9 10 0 14 15
18 61 1 7 6 13 11 13 6 0 8 3 4 7 -4 4 3 15 16 26 12 11 19 19 15 19 -4 0 8
15 27 32 19 17 41 32 50 32 13 0 13 2 2 9 -18 11 -23 46 -8 56 7 5 8 8 1 8 -7
0 -10 23 -8 57 2 43 -2 58 -14 63 -10 4 -14 13 -10 24 4 9 2 20 -5 24 -6 4
-13 14 -14 22 -1 8 -13 38 -25 66 -13 28 -23 58 -23 67 0 8 -14 40 -31 70 -31
57 -46 119 -31 128 5 3 9 16 9 28 0 16 12 30 38 44 43 23 65 61 67 111 2 96 7
154 15 173 31 78 38 111 39 182 0 43 4 87 9 96 4 8 10 46 13 83 4 48 11 71 24
81 11 8 16 22 13 35 -4 12 -2 22 3 22 4 0 5 10 2 22 -4 16 2 28 20 42 24 19
24 20 4 35 -11 9 -15 16 -9 16 6 0 11 8 11 18 0 21 -89 119 -108 119 -14 0
-170 69 -251 112 -45 24 -66 27 -149 28 -53 1 -91 4 -84 9 18 11 -64 10 -86
-1 -9 -6 -36 -6 -59 -2 l-42 9 39 1 c21 0 40 5 43 9 4 6 -164 1 -219 -7 -6 -1
2 -9 16 -17 l26 -16 -31 8 c-50 13 -238 7 -247 -7 -5 -8 -60 -13 -169 -16
-166 -3 -172 -4 -288 -58 -23 -11 -57 -33 -77 -49 -32 -28 -34 -33 -27 -74 4
-26 13 -45 21 -45 7 0 23 -14 35 -30 25 -35 27 -43 11 -43 -16 0 -37 -24 -45
-48 -5 -15 0 -24 17 -31 20 -9 23 -19 23 -65 0 -40 7 -63 25 -87 29 -39 26
-64 -9 -81 -40 -20 -46 -52 -16 -85 29 -31 32 -40 16 -50 -7 -4 -5 -12 5 -22
18 -18 21 -68 5 -84 -8 -8 1 -22 31 -45 36 -28 43 -41 43 -71 0 -20 5 -45 10
-56 6 -10 12 -41 13 -68 1 -27 4 -50 8 -53 14 -8 2 -93 -13 -105 -15 -10 -14
-13 1 -23 15 -10 15 -14 3 -22 -8 -6 -11 -15 -7 -22 4 -6 0 -14 -9 -18 -9 -3
-14 -10 -11 -16 4 -5 1 -9 -5 -9 -12 0 7 -41 26 -55 7 -5 7 -8 0 -8 -6 0 -11
-22 -12 -48 0 -27 -7 -52 -14 -57 -16 -10 -15 -13 22 -85 33 -62 36 -77 24
-137 -5 -31 -3 -45 14 -66 16 -20 20 -36 15 -56 -9 -36 -6 -87 9 -160 12 -63
17 -98 27 -194 3 -35 10 -68 14 -74 5 -6 -14 -48 -43 -94 -54 -90 -60 -119
-34 -168 20 -39 49 -190 42 -220 -3 -12 2 -41 10 -64 21 -59 19 -84 -9 -103
-23 -16 -23 -16 -1 -17 30 -1 64 -68 45 -90 -10 -13 -6 -27 16 -71 68 -129 78
-152 83 -181 8 -48 45 -116 76 -141 16 -12 25 -22 20 -22 -4 1 -2 -7 6 -15 8
-10 10 -31 6 -57 -4 -25 -1 -54 8 -76 8 -19 12 -41 9 -49 -2 -7 1 -20 8 -29 8
-9 9 -15 2 -15 -6 0 -10 -17 -9 -37 1 -20 4 -36 7 -36 5 0 7 -15 11 -87 0 -7
-3 -27 -7 -44 -6 -27 -2 -35 28 -60 30 -25 33 -31 20 -46 -26 -31 -18 -119 19
-224 34 -97 34 -100 18 -135 -10 -20 -19 -55 -20 -77 -1 -24 -13 -54 -29 -75
-15 -19 -29 -45 -31 -56 -5 -25 -40 -28 -130 -9 -35 7 -87 15 -116 18 -29 3
-81 13 -115 21 -35 9 -101 24 -147 33 -46 10 -126 31 -178 47 -52 17 -104 32
-116 35 -11 3 -63 24 -115 47 -52 23 -134 52 -183 66 -48 13 -100 34 -115 47
-15 13 -49 26 -74 30 -26 4 -53 12 -60 18 -7 5 -41 22 -77 36 -35 13 -118 56
-184 94 -66 38 -123 69 -127 69 -4 0 -36 22 -72 50 -35 28 -75 57 -89 64 -13
7 -30 29 -39 49 -17 40 -68 73 -86 55 -13 -13 -226 121 -347 220 -44 36 -83
66 -87 66 -4 0 -56 55 -116 123 -59 67 -165 180 -234 249 -70 70 -153 158
-186 195 -33 37 -91 103 -130 146 -80 89 -160 195 -251 331 -35 52 -73 109
-86 126 -87 126 -232 415 -297 594 -16 43 -56 138 -88 212 -33 73 -60 137 -60
143 0 6 -11 48 -25 93 -14 45 -40 131 -58 192 -19 61 -45 143 -59 184 -43 122
-57 175 -67 252 -5 40 -17 121 -25 178 -20 132 -29 379 -17 454 5 32 12 167
15 301 7 245 24 423 54 558 9 40 20 92 25 115 6 23 15 75 20 116 6 41 23 97
37 126 15 29 27 64 27 79 0 14 10 44 21 66 12 22 26 60 31 84 13 60 123 381
141 409 8 13 18 38 22 55 3 18 20 53 37 79 17 26 31 51 31 57 0 11 41 96 135
284 26 52 74 127 106 167 68 83 105 135 185 254 31 47 64 91 73 98 9 8 16 18
16 23 0 6 12 27 27 46 35 46 91 138 137 226 34 63 173 212 194 206 4 -1 25 15
45 35 21 20 64 60 97 89 32 29 71 66 86 82 15 16 34 29 41 29 7 0 24 14 37 32
13 17 46 46 73 62 28 17 51 35 51 39 0 5 21 22 47 40 26 17 47 34 47 38 0 4
22 20 50 36 27 16 70 45 94 64 55 45 391 270 437 294 18 9 36 20 39 25 2 4 33
23 68 43 34 19 77 44 94 54 18 10 48 26 69 35 43 20 71 34 186 94 48 25 101
48 119 52 18 4 34 14 38 22 3 8 11 15 19 15 8 0 20 6 28 14 9 8 52 17 108 21
52 4 97 12 101 18 8 13 123 20 169 11 19 -4 51 -5 72 -1 20 3 47 2 60 -2 13
-5 26 -4 29 2 4 6 11 8 16 5 4 -3 11 -1 15 5 6 9 57 -5 116 -33 13 -6 62 -6
136 2 64 6 159 15 211 19 92 7 98 8 155 53 52 40 65 45 97 40 77 -13 145 30
214 134 48 72 52 88 41 153 -9 55 -6 77 24 192 14 52 13 217 -1 231 -6 6 -11
22 -11 35 0 13 -5 60 -12 104 -11 73 -16 85 -50 116 -21 20 -45 43 -54 51 -10
9 -37 16 -63 16 -26 0 -66 5 -89 10 -23 6 -46 6 -50 1 -5 -4 -29 -1 -53 8 -24
8 -65 19 -91 23 -26 5 -59 11 -73 15 -15 4 -55 9 -90 13 -34 3 -67 10 -73 15
-5 5 -20 10 -33 10 -13 0 -25 5 -28 13 -3 10 -64 13 -250 14 -234 2 -346 -7
-374 -30 -7 -5 -27 -7 -44 -3 -21 5 -43 1 -66 -12 -53 -28 -105 -47 -140 -50
-17 -2 -55 -6 -84 -10 -29 -4 -90 -9 -136 -12 -46 -3 -110 -14 -142 -25 -32
-10 -82 -27 -111 -36 -47 -15 -191 -84 -468 -224 -48 -25 -98 -45 -111 -45
-12 0 -37 -12 -54 -27 -17 -14 -49 -34 -71 -43 -22 -9 -54 -27 -72 -41 -17
-13 -111 -69 -209 -125 -246 -140 -359 -226 -600 -452 -75 -71 -176 -164 -225
-206 -146 -127 -398 -382 -534 -542 -111 -130 -335 -423 -412 -540 -135 -203
-173 -263 -240 -379 -206 -361 -360 -762 -420 -1094 -6 -34 -15 -65 -20 -68
-5 -4 -27 -65 -49 -137 -21 -73 -50 -165 -64 -205 -49 -149 -104 -435 -116
-609 -2 -29 -8 -93 -14 -142 -5 -49 -13 -115 -16 -147 -10 -106 -19 -464 -18
-756 1 -332 15 -471 82 -793 9 -46 18 -110 18 -143 1 -33 5 -57 10 -54 5 3 5
-7 2 -22 -4 -15 -2 -52 5 -82 14 -61 105 -358 139 -449 11 -32 30 -85 40 -118
11 -33 32 -84 47 -113 15 -29 34 -75 43 -102 10 -27 29 -68 43 -90 33 -52 45
-86 50 -135 2 -22 19 -66 36 -98 18 -32 47 -84 65 -116 18 -32 30 -62 26 -68
-5 -8 37 -91 79 -158 61 -96 103 -173 98 -180 -3 -5 -1 -9 5 -9 5 0 9 -6 8
-13 -3 -28 178 -299 303 -454 214 -264 575 -647 662 -701 23 -14 96 -80 163
-146 67 -65 143 -133 168 -151 26 -17 77 -58 114 -91 36 -33 112 -89 168 -124
55 -35 148 -97 206 -137 58 -41 130 -86 160 -101 30 -14 78 -44 105 -65 27
-22 52 -40 55 -39 13 1 168 -90 168 -100 0 -5 53 -36 118 -67 65 -32 123 -62
130 -67 21 -18 91 -51 181 -85 48 -19 84 -37 81 -40 -8 -8 89 -52 160 -72 106
-30 206 -65 238 -82 18 -9 40 -16 50 -16 9 0 20 -4 23 -9 3 -5 37 -17 76 -27
40 -10 81 -23 93 -28 83 -36 198 -69 304 -88 166 -28 332 -63 358 -74 17 -8
64 -20 105 -26 40 -7 89 -16 110 -22 41 -11 336 -37 535 -47 72 -4 287 -7 478
-7 300 0 364 3 478 22 72 11 173 26 225 33 90 11 242 46 343 79 27 9 56 15 63
14 8 -2 39 3 70 10 30 6 75 12 100 12 25 0 66 11 96 26 45 22 63 25 116 20 54
-5 75 -1 149 27 48 19 90 38 93 43 3 6 30 10 60 10 56 0 160 35 194 66 10 9
40 22 66 29 25 7 89 30 141 52 52 22 116 48 142 59 26 11 77 40 113 64 36 25
69 45 73 45 5 0 20 10 35 21 14 11 33 21 42 21 39 1 232 108 315 175 49 40
120 95 158 122 39 27 76 57 83 65 7 9 20 16 29 16 9 0 38 16 65 35 27 20 59
39 71 43 12 3 30 16 40 27 10 12 27 21 37 21 10 0 41 27 68 60 64 76 73 86 63
66 -4 -9 11 3 34 26 74 76 235 226 284 266 27 21 101 92 165 158 63 66 164
168 223 229 59 60 108 113 108 119 0 6 11 8 24 5 20 -5 32 2 63 37 20 25 47
65 59 90 12 25 32 53 46 62 14 9 34 34 45 56 11 21 35 56 53 78 19 21 44 57
55 80 12 23 49 78 83 124 34 45 77 111 95 146 17 36 43 78 58 95 14 18 37 57
52 89 14 31 37 67 52 79 14 13 32 41 39 63 8 23 31 60 53 84 21 23 47 67 57
98 10 30 39 88 64 129 26 42 47 79 47 83 0 5 13 36 30 69 17 34 52 105 79 159
27 54 63 116 79 137 24 30 31 51 35 101 6 88 57 297 83 339 15 25 19 44 15 70
-5 25 -1 47 15 78 13 25 21 54 18 70 -3 14 3 67 14 118 10 50 28 166 40 257
20 150 22 214 21 689 0 416 -4 532 -15 564 -8 23 -15 60 -15 83 -1 23 -8 61
-16 84 -8 23 -15 66 -16 96 0 57 -19 149 -48 240 -10 29 -21 90 -26 136 -4 46
-21 122 -36 168 -15 46 -56 169 -90 273 -83 254 -169 492 -203 562 -15 32 -27
62 -27 68 -1 6 -30 63 -65 126 -35 64 -76 139 -90 168 -15 29 -36 64 -47 78
-11 14 -38 64 -61 111 -38 77 -69 127 -142 226 -15 20 -54 79 -88 131 -143
222 -181 278 -220 325 -22 27 -47 62 -55 78 -41 81 -223 317 -335 435 -35 36
-58 67 -53 69 15 5 -10 47 -77 132 -32 41 -55 77 -52 82 2 4 0 8 -5 8 -5 0
-31 27 -57 60 -146 183 -483 481 -626 554 -27 13 -58 34 -69 46 -11 13 -24 23
-29 23 -6 0 -30 16 -55 36 -25 20 -48 37 -53 37 -4 0 -27 15 -50 34 -24 19
-58 44 -77 55 -18 12 -61 40 -95 63 -88 60 -84 58 -303 166 -250 124 -327 160
-373 174 -78 22 -154 55 -194 83 -23 17 -62 39 -87 49 -24 11 -45 23 -45 26 0
13 -216 106 -246 106 -9 0 -16 5 -16 10 0 6 -6 8 -14 5 -16 -6 -131 29 -184
57 -21 11 -76 28 -122 38 -45 9 -89 22 -96 28 -8 6 -19 8 -25 4 -6 -4 -10 -2
-10 4 0 6 -8 12 -16 12 -9 0 -16 4 -16 10 0 6 -4 10 -8 9 -20 -3 -35 2 -30 11
6 9 -41 22 -84 22 -14 0 -25 5 -25 11 0 6 -5 8 -11 4 -22 -13 -84 7 -116 38
-33 32 -60 39 -80 19 -7 -6 -18 -8 -25 -3 -26 16 -109 12 -172 -8z m-2641
-1163 c-9 -6 -20 -11 -26 -11 -6 0 -4 5 5 11 9 5 20 10 26 10 6 0 4 -5 -5 -10z
m7298 -7071 c-11 -29 -24 -39 -16 -12 3 9 7 24 10 33 4 10 8 15 11 12 3 -3 1
-18 -5 -33z"/>
</g>
</svg>
