<?xml version="1.0" standalone="no"?>
<!DOCTYPE svg PUBLIC "-//W3C//DTD SVG 20010904//EN"
 "http://www.w3.org/TR/2001/REC-SVG-20010904/DTD/svg10.dtd">
<svg version="1.0" xmlns="http://www.w3.org/2000/svg"
 width="931.273280pt" height="1522.599508pt" viewBox="0 0 931.273280 1522.599508"
 preserveAspectRatio="xMidYMid meet">
<metadata>
Created by Potrace Professional 1.1m
</metadata>
<g transform="translate(-17.434978,1539.754689) rotate(-360.00) scale(0.095238,-0.095238)"
fill="#000000" stroke="none">
<path d="M5003 16163 c-88 -6 -258 -35 -336 -55 -40 -11 -97 -24 -126 -28 -29
-4 -64 -12 -78 -17 -15 -6 -47 -12 -72 -14 -24 -3 -64 -14 -88 -26 -24 -11
-54 -21 -65 -21 -12 0 -46 -11 -75 -25 -29 -14 -92 -43 -141 -64 -50 -22 -102
-48 -117 -59 -15 -11 -60 -36 -100 -56 -40 -20 -108 -66 -151 -101 -43 -35
-109 -85 -147 -110 -73 -48 -286 -254 -424 -409 -46 -52 -103 -114 -126 -137
-24 -24 -63 -76 -88 -116 -87 -141 -121 -200 -162 -277 -23 -44 -53 -101 -68
-126 -26 -47 -55 -112 -126 -284 -20 -49 -42 -95 -47 -102 -6 -6 -17 -58 -26
-115 -9 -57 -23 -146 -31 -198 -15 -97 -34 -422 -30 -514 2 -29 8 -81 15 -116
6 -34 14 -95 17 -135 3 -40 9 -80 13 -89 5 -10 15 -46 22 -80 7 -35 24 -99 38
-143 14 -44 26 -87 26 -95 0 -37 158 -404 225 -523 44 -78 186 -286 237 -347
200 -240 305 -356 457 -510 208 -210 286 -266 577 -412 181 -91 328 -147 493
-187 41 -10 95 -28 121 -41 26 -13 70 -27 98 -31 27 -5 52 -12 55 -17 3 -5 18
-9 32 -9 15 0 42 -7 60 -16 18 -8 43 -16 54 -18 22 -4 37 -50 17 -50 -17 0
-14 -29 4 -36 25 -9 19 -26 -7 -20 -19 5 -21 3 -17 -21 3 -16 0 -30 -6 -32 -9
-3 -9 -12 0 -35 6 -18 8 -41 3 -54 -5 -13 -5 -23 0 -23 15 0 33 28 25 37 -5 5
-2 5 5 1 15 -9 18 -48 3 -48 -6 0 -10 -4 -10 -8 4 -21 -2 -35 -11 -29 -6 3
-12 -2 -13 -13 -6 -70 -5 -97 3 -97 5 0 10 -13 10 -27 0 -16 -5 -24 -11 -21
-16 10 -12 -5 6 -23 16 -16 13 -68 -5 -74 -10 -4 -1 -66 9 -65 12 0 8 -152 -4
-160 -6 -4 -9 -26 -8 -50 2 -27 -2 -45 -11 -48 -7 -3 -92 -17 -188 -31 -97
-15 -208 -34 -247 -43 -90 -21 -282 -57 -366 -68 -34 -4 -93 -18 -131 -30 -38
-12 -79 -22 -91 -22 -13 0 -55 -11 -95 -25 -39 -13 -121 -40 -181 -59 -61 -20
-132 -46 -158 -58 -26 -13 -85 -36 -131 -52 -46 -15 -147 -61 -223 -101 -77
-40 -183 -91 -237 -113 -53 -23 -139 -70 -191 -104 -52 -34 -147 -93 -210
-132 -64 -38 -135 -83 -159 -99 -211 -143 -255 -171 -268 -170 -21 0 -421
-353 -592 -522 -172 -169 -416 -438 -440 -485 -10 -20 -41 -69 -67 -110 -69
-103 -90 -140 -196 -350 -147 -291 -187 -387 -227 -544 -12 -46 -28 -106 -37
-131 -26 -79 -35 -115 -63 -263 -29 -156 -28 -154 -52 -357 -14 -117 -16 -255
-14 -803 3 -692 -6 -1175 -22 -1255 -36 -173 -49 -417 -73 -1412 -9 -359 -26
-707 -38 -798 -4 -29 -9 -72 -11 -95 -2 -23 -6 -70 -8 -105 -7 -86 9 -134 74
-222 86 -117 115 -143 151 -138 17 3 31 1 31 -4 0 -5 18 -7 39 -4 22 3 31 3
21 0 -32 -10 -19 -23 21 -20 66 4 68 4 62 21 -7 18 5 21 21 4 12 -11 60 5 85
29 7 7 32 10 55 8 62 -6 88 8 139 75 39 53 44 66 44 113 -1 30 -9 77 -19 105
-10 32 -13 56 -7 63 16 20 24 78 12 85 -6 4 -11 35 -11 69 0 34 -6 86 -12 115
-11 48 -11 59 6 90 14 25 17 45 12 70 -13 60 -19 116 -21 198 -1 43 -8 154
-16 246 -8 103 -11 225 -7 315 4 81 7 417 8 746 0 329 5 686 10 793 5 106 12
304 15 439 3 134 9 252 14 262 4 10 9 152 10 317 4 452 14 596 54 756 10 43
22 98 26 121 4 23 26 120 49 215 79 334 168 552 334 814 37 58 100 159 140
225 97 158 163 242 307 397 376 400 730 682 1176 935 349 197 702 342 1040
426 229 57 840 152 858 134 9 -9 6 -119 -5 -180 -3 -14 -1 -32 5 -39 6 -7 4
-23 -6 -42 -8 -16 -13 -52 -12 -82 1 -29 -1 -55 -5 -57 -4 -3 -4 -41 1 -84 5
-44 7 -102 4 -130 -4 -31 -3 -48 3 -45 15 9 26 -24 24 -69 -2 -23 5 -51 17
-68 20 -32 56 -66 69 -66 5 0 39 -22 75 -48 37 -26 71 -47 76 -47 6 0 19 -6
29 -14 16 -12 -18 -17 -242 -38 -144 -13 -283 -30 -310 -38 -28 -8 -65 -15
-84 -15 -20 0 -48 -7 -64 -15 -17 -9 -59 -24 -95 -33 -89 -25 -388 -164 -459
-215 -32 -23 -103 -69 -157 -104 -118 -74 -331 -269 -481 -439 -56 -64 -115
-127 -131 -139 -16 -13 -39 -40 -50 -61 -12 -21 -41 -69 -64 -107 -46 -72
-169 -306 -181 -341 -3 -12 -11 -28 -16 -37 -35 -60 -80 -177 -129 -336 -11
-38 -28 -87 -37 -110 -13 -34 -18 -123 -25 -467 -5 -234 -7 -452 -4 -485 2
-33 7 -167 9 -299 3 -132 12 -427 19 -655 19 -594 16 -1202 -7 -1344 -20 -125
-41 -841 -33 -1103 4 -105 1 -169 -8 -205 -8 -28 -15 -80 -16 -115 -2 -61 -19
-183 -31 -215 -7 -21 -2 -64 10 -87 5 -10 46 -42 90 -71 77 -51 83 -54 158
-55 48 -1 70 -5 58 -10 -11 -5 1 -6 29 -3 25 3 70 7 98 10 28 3 57 10 63 16 7
5 31 8 53 6 88 -7 185 51 185 111 0 17 -5 31 -10 31 -17 0 -21 44 -5 68 13 21
13 24 -1 30 -10 4 -16 19 -16 44 0 20 -5 47 -11 59 -9 16 -8 25 6 41 12 13 16
27 11 43 -4 13 -10 60 -13 103 -3 43 -10 98 -16 121 -17 71 -32 1465 -18 1732
1 23 1 59 -1 79 -1 20 0 96 4 168 5 117 18 860 20 1176 1 66 -3 253 -7 415 -6
186 -5 390 2 556 11 244 14 271 45 378 18 64 39 126 47 139 8 13 15 31 15 41
0 9 39 95 87 190 93 186 190 327 323 470 218 235 551 448 803 512 194 50 244
55 577 55 356 0 397 -5 602 -78 158 -57 312 -136 417 -216 80 -60 210 -165
240 -193 157 -145 266 -271 296 -343 9 -20 23 -40 32 -43 27 -11 214 -274 214
-301 0 -4 42 -93 93 -199 129 -264 155 -326 180 -423 40 -159 45 -251 38 -670
-7 -452 -16 -541 -85 -909 -8 -44 -20 -119 -27 -168 -19 -154 -64 -426 -100
-620 -9 -43 -25 -154 -37 -246 -11 -92 -23 -170 -25 -173 -2 -4 -9 -68 -15
-143 -7 -75 -19 -185 -29 -245 -13 -86 -15 -150 -9 -300 4 -104 8 -239 10
-300 7 -305 45 -467 190 -814 38 -92 93 -222 120 -288 28 -67 63 -147 77 -179
33 -71 39 -102 43 -236 4 -121 29 -209 65 -233 13 -8 26 -26 30 -40 4 -19 18
-29 48 -38 43 -13 39 -14 210 34 26 7 52 13 58 13 25 2 99 42 106 58 19 42 22
384 4 406 -6 6 -8 14 -4 18 3 3 -1 17 -10 30 -8 14 -17 55 -20 93 -4 51 -18
98 -55 184 -27 63 -58 139 -68 168 -30 84 -102 273 -159 417 -78 198 -84 235
-90 549 -5 240 -2 306 21 551 15 153 30 337 34 410 3 72 18 192 31 267 14 75
32 193 41 263 40 303 72 522 91 625 11 60 30 195 41 299 12 104 26 215 31 246
6 32 11 217 11 410 1 470 -18 630 -100 835 -21 52 -47 116 -58 142 -34 84
-117 245 -158 305 -21 32 -46 74 -54 94 -33 77 -210 336 -317 463 -18 21 -56
68 -85 104 -130 164 -299 323 -540 508 -69 53 -265 166 -410 238 -135 67 -369
138 -555 168 -43 7 -79 19 -82 27 -3 7 1 27 10 44 8 17 12 37 7 45 -14 27 -22
200 -9 215 9 10 9 23 0 47 -6 19 -11 56 -11 82 0 27 -6 56 -14 63 -10 12 -9
13 7 8 15 -6 18 -3 13 10 -4 9 -3 22 1 29 11 17 11 167 -1 182 -5 8 -5 14 1
14 5 0 10 24 10 55 1 30 5 101 9 159 l8 103 190 -7 c343 -13 656 -57 931 -132
37 -10 101 -27 141 -36 147 -36 404 -142 452 -186 12 -11 37 -21 54 -23 39 -5
268 -117 352 -172 77 -52 314 -229 370 -277 23 -20 54 -45 68 -54 50 -34 247
-224 345 -332 114 -126 229 -276 297 -387 26 -42 73 -117 105 -168 92 -144
290 -540 346 -691 46 -125 88 -274 130 -462 9 -40 30 -137 47 -215 56 -249 59
-325 70 -1596 2 -286 9 -550 14 -588 5 -38 7 -269 4 -514 -3 -253 1 -645 8
-903 8 -252 14 -467 14 -478 1 -79 -36 -316 -62 -397 -9 -28 -19 -112 -22
-191 -6 -115 -4 -149 10 -186 9 -25 17 -67 17 -94 -1 -86 54 -158 118 -155 19
1 54 -6 77 -16 41 -17 153 -24 192 -12 27 9 52 56 60 116 9 66 55 256 69 284
5 11 17 72 26 134 8 63 18 118 21 124 4 5 6 63 6 128 0 65 7 148 15 186 17 77
17 526 -3 2033 -11 788 -19 1007 -45 1243 -5 49 -10 191 -10 315 -1 309 -18
433 -106 813 -78 339 -134 523 -226 745 -31 75 -56 142 -56 149 0 37 -178 371
-274 514 -31 46 -70 110 -88 142 -54 96 -268 383 -387 517 -131 148 -456 423
-625 529 -50 31 -108 70 -128 87 -20 16 -65 45 -100 64 -34 19 -75 43 -90 53
-76 53 -381 194 -576 269 -38 14 -73 29 -79 34 -6 4 -72 28 -147 52 -75 24
-165 53 -200 64 -98 32 -577 124 -682 132 -52 3 -154 13 -226 21 -72 8 -193
15 -270 15 -76 0 -141 4 -144 9 -3 5 0 23 7 40 8 23 8 47 1 85 -6 29 -7 60 -2
69 5 8 9 114 8 234 0 255 0 295 4 348 1 22 -1 54 -5 72 l-7 32 54 -14 c60 -16
92 -17 270 -12 111 4 133 8 273 55 267 88 489 184 599 258 347 232 540 393
727 608 215 245 342 445 422 663 16 43 54 137 84 210 64 149 99 271 135 467
74 397 73 860 -3 1165 -28 111 -46 170 -118 373 -135 381 -302 641 -608 945
-157 156 -217 209 -330 291 -89 65 -216 150 -254 170 -12 6 -29 18 -38 27 -34
34 -270 154 -395 201 -216 81 -261 96 -337 113 -43 10 -116 27 -162 38 -137
32 -192 41 -341 51 -140 10 -366 12 -468 5z m489 -508 c238 -22 475 -86 698
-187 23 -11 65 -30 94 -43 95 -42 215 -117 265 -166 26 -26 53 -48 60 -49 32
-5 148 -89 221 -160 46 -44 267 -298 303 -348 13 -17 35 -47 51 -66 49 -62
136 -211 187 -319 67 -141 137 -359 190 -588 39 -170 43 -203 43 -331 1 -144
-32 -442 -60 -556 -46 -188 -83 -287 -193 -516 -73 -155 -184 -323 -292 -443
-55 -62 -134 -153 -175 -204 -60 -73 -99 -108 -201 -178 -305 -211 -577 -345
-905 -444 -41 -13 -78 -12 -171 5 -20 4 -41 11 -47 16 -17 17 -148 12 -163 -6
-7 -8 -20 -15 -29 -15 -9 0 -32 -6 -50 -12 -20 -8 -55 -10 -92 -5 l-60 8 0 51
c0 51 -21 113 -51 149 -19 23 -50 24 -71 3 -14 -14 -18 -14 -32 0 -11 11 -20
13 -29 6 -7 -6 -22 -8 -34 -5 -12 3 -32 1 -44 -6 -17 -9 -24 -7 -35 8 -10 13
-28 19 -66 19 -96 0 -251 24 -326 50 -173 60 -395 171 -510 255 -27 19 -54 35
-59 35 -6 0 -17 8 -25 17 -7 9 -47 42 -88 72 -84 64 -209 190 -250 252 -16 23
-45 61 -66 84 -42 47 -132 181 -135 201 -1 7 -7 19 -13 27 -6 7 -20 33 -32 56
-11 23 -39 75 -62 115 -68 122 -161 381 -162 448 0 14 -12 81 -27 151 -36 171
-56 327 -56 441 0 216 98 689 169 811 11 20 20 40 20 47 -1 6 38 84 85 172
205 384 481 667 886 910 163 97 405 165 766 212 307 40 379 44 573 26z"/>
</g>
</svg>
