<?xml version="1.0" encoding="UTF-8" standalone="no"?>
<!DOCTYPE svg PUBLIC "-//W3C//DTD SVG 1.1//EN" "http://www.w3.org/Graphics/SVG/1.1/DTD/svg11.dtd">
<svg width="100%" height="100%" viewBox="0 0 1030 818" version="1.1" xmlns="http://www.w3.org/2000/svg" xmlns:xlink="http://www.w3.org/1999/xlink" xml:space="preserve" xmlns:serif="http://www.serif.com/" style="fill-rule:evenodd;clip-rule:evenodd;stroke-linejoin:round;stroke-miterlimit:2;">
    <g id="Artboard1" transform="matrix(0.9644,0,0,0.942391,-128.265,-99.8935)">
        <rect x="133" y="106" width="1067.42" height="867.926" style="fill:none;"/>
        <g transform="matrix(1.03691,0,0,1.06113,-65.0505,-65.9031)">
            <path d="M550.462,169.159C517.986,171.445 496.176,175.35 465.415,184.207C423.605,196.207 393.7,208.969 370.081,224.588C353.319,235.731 333.129,252.302 320.367,265.254C312.748,272.969 308.558,276.493 307.034,276.493L306.939,279.254C309.986,283.159 314.653,286.112 331.415,294.492C362.558,310.207 402.367,334.683 436.462,359.159C441.415,362.683 448.557,367.731 452.462,370.397C467.986,381.254 546.176,440.397 579.033,466.302C602.367,484.588 612.176,492.683 651.51,525.54C669.7,540.778 724.938,588.492 743.414,604.968C775.129,633.159 815.7,670.492 842.462,696.016C852.843,706.016 863.319,715.921 865.7,718.016C867.986,720.111 869.986,722.111 869.986,722.492C869.986,723.73 860.271,736.302 851.033,747.063C828.176,773.73 795.986,801.349 770.652,815.921C745.795,830.206 708.843,844.682 678.462,852.016C615.7,867.254 555.7,869.73 505.7,859.159C483.129,854.397 462.748,847.825 449.319,840.968C421.51,826.778 387.605,804.206 366.462,785.635C364.272,783.73 355.415,775.159 346.843,766.587C309.319,729.063 288.081,690.397 276.558,638.492C272.081,618.302 270.939,607.064 270.939,584.683C270.843,566.778 275.415,549.826 276.272,547.064C280.653,533.254 286.462,520.397 292.367,511.635C295.319,507.254 298.7,507.016 297.748,505.873C294.7,502.159 283.32,496.778 261.7,487.635C239.034,477.921 226.462,473.73 223.605,474.873C221.986,475.445 212.272,494.778 208.843,504.016C204.748,515.54 201.034,529.73 199.51,540.016C197.51,553.064 197.51,573.635 199.415,586.492C210.177,657.921 240.843,711.635 298.939,760.587C302.558,763.54 305.7,766.302 305.986,766.587C306.177,766.873 310.939,770.587 316.462,774.682C350.081,799.921 441.462,848.444 446.415,850.54C476.319,863.492 490.557,867.73 508.462,873.825C540.367,884.778 571.605,892.016 603.129,895.635C629.224,898.682 659.986,898.778 684.938,895.73C737.986,889.254 773.7,880.016 813.986,862.397C849.605,846.778 875.414,828.492 907.319,796.206L925.319,778.111L937.224,790.587C970.843,825.444 1105.31,947.827 1122.91,956.635C1149.17,969.772 1195.84,975.539 1200.41,973.539C1201.02,973.273 1174.92,965.757 1149.42,951.315C1120.04,934.681 1058.94,873.54 1050.94,864.492C1033.03,844.206 992.081,800.873 964.747,773.349L944.271,752.683L949.7,744.397C956.557,733.825 970.557,705.159 975.319,692.016C985.509,663.54 989.7,636.492 990.557,593.54C991.033,571.635 990.843,563.254 989.509,552.016C981.224,480.397 944.843,387.826 902.747,331.159C890.652,314.873 877.89,300.302 859.986,282.492C829.89,252.493 800.509,230.112 758.414,211.826C705.843,188.969 687.319,184.588 657.986,177.635C618.033,168.166 557.605,168.683 550.462,169.159ZM672.938,204.016C677.605,204.778 685.224,206.016 689.986,206.588C703.891,208.302 721.7,213.35 741.414,221.064C748.081,223.635 754.176,225.921 755.033,226.016C757.319,226.207 773.319,238.969 783.129,248.302C815.128,278.969 845.414,319.54 864.367,357.445C889.128,406.873 907.033,460.969 915.033,510.492C918.081,528.968 918.652,565.159 916.462,590.016C912.747,632.111 905.509,658.683 888.747,691.825L885.795,697.635L875.795,688.397C832.748,648.683 785.795,607.159 744.367,572.016C714.081,546.397 692.367,528.207 685.986,523.064C681.795,519.826 678.176,516.873 677.986,516.492C677.224,515.73 646.367,491.159 630.938,479.159C624.081,473.826 615.986,467.54 612.938,465.159C596.462,452.302 525.319,399.254 514.462,391.73C511.129,389.445 505.034,385.159 500.938,382.111C491.795,375.54 461.796,355.35 453.129,349.921C449.605,347.826 445.319,345.159 443.605,344.016C439.605,341.445 381.367,308.445 387.462,302.54C402.986,287.588 431.319,263.254 447.986,252.873C483.415,230.683 556.176,207.159 603.986,202.493C617.033,201.254 662.938,202.207 672.938,204.016ZM1077.46,528.635C1069.08,526.635 1037.99,573.921 1036.65,576.206C1035.6,577.826 1044.94,583.73 1055.99,588.587C1076.27,597.445 1095.8,605.349 1100.18,606.397C1108.65,608.492 1108.75,608.397 1117.41,596.873C1121.8,591.064 1128.94,581.73 1133.22,576.206C1137.41,570.683 1140.94,565.826 1140.94,565.349C1140.94,564.873 1143.6,559.968 1140.94,558.064C1135.8,554.349 1085.18,530.445 1077.46,528.635ZM1121.7,500.159C1111.13,510.921 1102.27,520.064 1102.18,520.54C1100.94,523.873 1154.37,548.445 1168.08,550.73L1175.03,551.968L1194.37,531.968C1210.94,514.826 1217.8,505.873 1216.66,504.54C1211.13,498.254 1155.99,474.635 1146.47,474.54C1145.8,474.54 1132.27,489.397 1121.7,500.159ZM1041.89,452.969C1017.99,477.445 1010.94,485.54 1012.18,487.064C1017.22,493.159 1073.22,517.254 1082.37,517.254C1083.13,517.254 1086.46,514.492 1089.6,511.064C1092.84,507.635 1102.56,497.445 1111.13,488.397C1122.94,476.016 1126.65,471.54 1125.8,470.588C1120.75,464.588 1064.75,440.397 1055.41,440.302C1054.75,440.302 1048.65,446.016 1041.89,452.969Z" style="fill:white;fill-rule:nonzero;"/>
        </g>
    </g>
</svg>
