<?xml version="1.0" encoding="UTF-8" standalone="no"?>
<!DOCTYPE svg PUBLIC "-//W3C//DTD SVG 1.1//EN" "http://www.w3.org/Graphics/SVG/1.1/DTD/svg11.dtd">
<svg width="100%" height="100%" viewBox="0 0 5759 2718" version="1.1" xmlns="http://www.w3.org/2000/svg" xmlns:xlink="http://www.w3.org/1999/xlink" xml:space="preserve" xmlns:serif="http://www.serif.com/" style="fill-rule:evenodd;clip-rule:evenodd;stroke-linejoin:round;stroke-miterlimit:2;">
    <g transform="matrix(0.914853,0,0,0.852038,-2019.08,-610.911)">
        <rect id="Artboard1" x="2207" y="717" width="6295" height="3190" style="fill:none;"/>
        <g id="Artboard11" serif:id="Artboard1">
            <g transform="matrix(1.09307,-1.66387e-16,-5.64443e-16,1.17366,1439.67,-4300.38)">
                <g transform="matrix(400,0,0,400,1160.13,4950.73)">
                    <path d="M0.525,-0.248C0.525,-0.196 0.515,-0.15 0.495,-0.111C0.474,-0.072 0.445,-0.042 0.408,-0.02C0.37,0.001 0.325,0.012 0.272,0.012C0.257,0.012 0.242,0.011 0.228,0.009C0.213,0.007 0.198,0.005 0.183,0.003L0.183,0.152C0.183,0.158 0.185,0.163 0.189,0.167C0.194,0.17 0.199,0.172 0.205,0.173L0.264,0.179L0.264,0.218L0.021,0.218L0.021,0.179L0.069,0.173C0.083,0.171 0.09,0.164 0.09,0.152L0.09,-0.411L0.021,-0.411L0.021,-0.444L0.144,-0.482L0.183,-0.482L0.183,-0.432C0.206,-0.45 0.23,-0.464 0.257,-0.476C0.283,-0.488 0.309,-0.494 0.334,-0.494C0.368,-0.494 0.4,-0.484 0.429,-0.464C0.458,-0.443 0.481,-0.415 0.499,-0.378C0.516,-0.341 0.525,-0.298 0.525,-0.248ZM0.425,-0.234C0.425,-0.268 0.42,-0.3 0.409,-0.329C0.398,-0.357 0.383,-0.38 0.362,-0.398C0.341,-0.415 0.316,-0.424 0.285,-0.424C0.268,-0.424 0.251,-0.421 0.232,-0.415C0.214,-0.408 0.198,-0.402 0.183,-0.394L0.183,-0.05C0.21,-0.039 0.237,-0.034 0.264,-0.034C0.301,-0.034 0.331,-0.044 0.355,-0.063C0.378,-0.081 0.396,-0.106 0.407,-0.136C0.419,-0.167 0.425,-0.199 0.425,-0.234Z" style="fill-rule:nonzero;"/>
                </g>
                <g transform="matrix(400,0,0,400,1383.76,4950.73)">
                    <path d="M0.456,-0.05C0.428,-0.033 0.398,-0.018 0.365,-0.006C0.333,0.006 0.3,0.012 0.266,0.012C0.226,0.012 0.188,0.003 0.153,-0.015C0.117,-0.033 0.089,-0.06 0.067,-0.097C0.045,-0.134 0.034,-0.18 0.034,-0.236C0.034,-0.288 0.044,-0.333 0.064,-0.372C0.085,-0.411 0.112,-0.441 0.148,-0.462C0.183,-0.483 0.224,-0.494 0.269,-0.494C0.331,-0.494 0.378,-0.475 0.409,-0.436C0.44,-0.398 0.456,-0.349 0.456,-0.289L0.456,-0.276C0.456,-0.271 0.456,-0.266 0.455,-0.261L0.131,-0.261C0.131,-0.236 0.134,-0.211 0.139,-0.185C0.144,-0.16 0.153,-0.137 0.166,-0.117C0.179,-0.096 0.196,-0.08 0.217,-0.067C0.239,-0.055 0.266,-0.049 0.298,-0.049C0.326,-0.049 0.354,-0.055 0.382,-0.069C0.409,-0.082 0.434,-0.096 0.456,-0.111L0.456,-0.05ZM0.356,-0.306L0.356,-0.328C0.356,-0.361 0.348,-0.389 0.332,-0.411C0.316,-0.434 0.292,-0.445 0.259,-0.445C0.226,-0.445 0.198,-0.432 0.175,-0.408C0.152,-0.383 0.139,-0.349 0.136,-0.306L0.356,-0.306Z" style="fill-rule:nonzero;"/>
                </g>
                <g transform="matrix(400,0,0,400,1579.85,4950.73)">
                    <path d="M0.381,-0.38L0.342,-0.38C0.336,-0.387 0.328,-0.394 0.32,-0.399C0.311,-0.405 0.3,-0.407 0.288,-0.407C0.272,-0.407 0.256,-0.402 0.239,-0.391C0.222,-0.38 0.205,-0.364 0.188,-0.345L0.188,-0.064C0.188,-0.05 0.195,-0.043 0.209,-0.042L0.275,-0.039L0.275,-0L0.025,-0L0.025,-0.038L0.074,-0.042C0.08,-0.043 0.085,-0.045 0.089,-0.049C0.093,-0.053 0.095,-0.058 0.095,-0.064L0.095,-0.411L0.023,-0.411L0.023,-0.444L0.147,-0.482L0.188,-0.482L0.188,-0.393C0.216,-0.426 0.241,-0.451 0.262,-0.468C0.283,-0.486 0.302,-0.494 0.32,-0.494C0.33,-0.494 0.341,-0.493 0.354,-0.489C0.366,-0.486 0.375,-0.483 0.381,-0.479L0.381,-0.38Z" style="fill-rule:nonzero;"/>
                </g>
                <g transform="matrix(400,0,0,400,1736.3,4950.73)">
                    <path d="M0.218,-0.647C0.218,-0.63 0.212,-0.615 0.2,-0.603C0.188,-0.591 0.174,-0.585 0.157,-0.585C0.14,-0.585 0.126,-0.591 0.114,-0.603C0.101,-0.615 0.095,-0.63 0.095,-0.647C0.095,-0.664 0.101,-0.679 0.114,-0.69C0.126,-0.702 0.14,-0.708 0.157,-0.708C0.174,-0.708 0.188,-0.702 0.2,-0.69C0.212,-0.679 0.218,-0.664 0.218,-0.647ZM0.269,-0L0.034,-0L0.034,-0.039L0.083,-0.042C0.097,-0.043 0.104,-0.05 0.104,-0.064L0.104,-0.421L0.035,-0.421L0.035,-0.456L0.157,-0.494L0.197,-0.494L0.197,-0.064C0.197,-0.058 0.199,-0.053 0.203,-0.049C0.207,-0.045 0.212,-0.042 0.218,-0.042L0.269,-0.039L0.269,-0Z" style="fill-rule:nonzero;"/>
                </g>
                <g transform="matrix(400,0,0,400,1857.59,4950.73)">
                    <path d="M0.51,-0.24C0.51,-0.193 0.5,-0.15 0.48,-0.112C0.461,-0.074 0.433,-0.044 0.398,-0.021C0.362,0.001 0.32,0.012 0.271,0.012C0.222,0.012 0.181,0.001 0.145,-0.021C0.11,-0.043 0.082,-0.073 0.063,-0.111C0.044,-0.149 0.034,-0.192 0.034,-0.24C0.034,-0.288 0.044,-0.331 0.063,-0.369C0.083,-0.408 0.11,-0.438 0.146,-0.46C0.182,-0.483 0.225,-0.494 0.274,-0.494C0.324,-0.494 0.366,-0.483 0.401,-0.46C0.437,-0.437 0.463,-0.407 0.482,-0.368C0.5,-0.33 0.51,-0.287 0.51,-0.24ZM0.406,-0.241C0.406,-0.278 0.401,-0.312 0.391,-0.343C0.382,-0.375 0.367,-0.4 0.347,-0.42C0.328,-0.439 0.303,-0.449 0.273,-0.449C0.242,-0.449 0.217,-0.439 0.197,-0.42C0.177,-0.4 0.163,-0.375 0.153,-0.343C0.144,-0.312 0.139,-0.278 0.139,-0.241C0.139,-0.205 0.144,-0.171 0.154,-0.139C0.163,-0.108 0.178,-0.082 0.198,-0.063C0.217,-0.043 0.242,-0.033 0.272,-0.033C0.303,-0.033 0.328,-0.043 0.347,-0.063C0.367,-0.082 0.382,-0.108 0.391,-0.139C0.401,-0.171 0.406,-0.205 0.406,-0.241Z" style="fill-rule:nonzero;"/>
                </g>
                <g transform="matrix(400,0,0,400,2075.16,4950.73)">
                    <path d="M0.538,-0L0.381,-0L0.381,-0.053C0.358,-0.036 0.334,-0.02 0.308,-0.007C0.282,0.006 0.255,0.012 0.226,0.012C0.193,0.012 0.164,0.005 0.139,-0.009C0.115,-0.023 0.095,-0.042 0.08,-0.065C0.064,-0.089 0.053,-0.115 0.045,-0.143C0.038,-0.171 0.034,-0.2 0.034,-0.228C0.034,-0.273 0.043,-0.316 0.062,-0.357C0.081,-0.397 0.109,-0.43 0.146,-0.456C0.184,-0.481 0.232,-0.494 0.289,-0.494C0.305,-0.494 0.322,-0.493 0.341,-0.49C0.36,-0.486 0.373,-0.484 0.381,-0.482L0.381,-0.665L0.305,-0.665L0.305,-0.698L0.434,-0.737L0.474,-0.737L0.474,-0.064C0.474,-0.05 0.481,-0.043 0.495,-0.042L0.538,-0.039L0.538,-0ZM0.381,-0.091L0.381,-0.431C0.372,-0.434 0.36,-0.437 0.343,-0.441C0.326,-0.444 0.311,-0.446 0.296,-0.446C0.246,-0.446 0.207,-0.427 0.177,-0.391C0.148,-0.354 0.133,-0.306 0.133,-0.245C0.133,-0.191 0.146,-0.146 0.171,-0.11C0.196,-0.074 0.232,-0.056 0.278,-0.056C0.298,-0.056 0.317,-0.06 0.335,-0.068C0.352,-0.075 0.368,-0.083 0.381,-0.091Z" style="fill-rule:nonzero;"/>
                </g>
            </g>
            <g transform="matrix(1.09307,-1.17212e-16,-7.06812e-16,1.17366,3012.84,-4300.38)">
                <g transform="matrix(400,0,0,400,1178.98,4950.73)">
                    <path d="M0.218,-0.647C0.218,-0.63 0.212,-0.615 0.2,-0.603C0.188,-0.591 0.174,-0.585 0.157,-0.585C0.14,-0.585 0.126,-0.591 0.114,-0.603C0.101,-0.615 0.095,-0.63 0.095,-0.647C0.095,-0.664 0.101,-0.679 0.114,-0.69C0.126,-0.702 0.14,-0.708 0.157,-0.708C0.174,-0.708 0.188,-0.702 0.2,-0.69C0.212,-0.679 0.218,-0.664 0.218,-0.647ZM0.269,-0L0.034,-0L0.034,-0.039L0.083,-0.042C0.097,-0.043 0.104,-0.05 0.104,-0.064L0.104,-0.421L0.035,-0.421L0.035,-0.456L0.157,-0.494L0.197,-0.494L0.197,-0.064C0.197,-0.058 0.199,-0.053 0.203,-0.049C0.207,-0.045 0.212,-0.042 0.218,-0.042L0.269,-0.039L0.269,-0Z" style="fill-rule:nonzero;"/>
                </g>
                <g transform="matrix(400,0,0,400,1300.27,4950.73)">
                    <path d="M0.538,-0L0.381,-0L0.381,-0.053C0.358,-0.036 0.334,-0.02 0.308,-0.007C0.282,0.006 0.255,0.012 0.226,0.012C0.193,0.012 0.164,0.005 0.139,-0.009C0.115,-0.023 0.095,-0.042 0.08,-0.065C0.064,-0.089 0.053,-0.115 0.045,-0.143C0.038,-0.171 0.034,-0.2 0.034,-0.228C0.034,-0.273 0.043,-0.316 0.062,-0.357C0.081,-0.397 0.109,-0.43 0.146,-0.456C0.184,-0.481 0.232,-0.494 0.289,-0.494C0.305,-0.494 0.322,-0.493 0.341,-0.49C0.36,-0.486 0.373,-0.484 0.381,-0.482L0.381,-0.665L0.305,-0.665L0.305,-0.698L0.434,-0.737L0.474,-0.737L0.474,-0.064C0.474,-0.05 0.481,-0.043 0.495,-0.042L0.538,-0.039L0.538,-0ZM0.381,-0.091L0.381,-0.431C0.372,-0.434 0.36,-0.437 0.343,-0.441C0.326,-0.444 0.311,-0.446 0.296,-0.446C0.246,-0.446 0.207,-0.427 0.177,-0.391C0.148,-0.354 0.133,-0.306 0.133,-0.245C0.133,-0.191 0.146,-0.146 0.171,-0.11C0.196,-0.074 0.232,-0.056 0.278,-0.056C0.298,-0.056 0.317,-0.06 0.335,-0.068C0.352,-0.075 0.368,-0.083 0.381,-0.091Z" style="fill-rule:nonzero;"/>
                </g>
                <g transform="matrix(400,0,0,400,1525.86,4950.73)">
                    <path d="M0.456,-0.05C0.428,-0.033 0.398,-0.018 0.365,-0.006C0.333,0.006 0.3,0.012 0.266,0.012C0.226,0.012 0.188,0.003 0.153,-0.015C0.117,-0.033 0.089,-0.06 0.067,-0.097C0.045,-0.134 0.034,-0.18 0.034,-0.236C0.034,-0.288 0.044,-0.333 0.064,-0.372C0.085,-0.411 0.112,-0.441 0.148,-0.462C0.183,-0.483 0.224,-0.494 0.269,-0.494C0.331,-0.494 0.378,-0.475 0.409,-0.436C0.44,-0.398 0.456,-0.349 0.456,-0.289L0.456,-0.276C0.456,-0.271 0.456,-0.266 0.455,-0.261L0.131,-0.261C0.131,-0.236 0.134,-0.211 0.139,-0.185C0.144,-0.16 0.153,-0.137 0.166,-0.117C0.179,-0.096 0.196,-0.08 0.217,-0.067C0.239,-0.055 0.266,-0.049 0.298,-0.049C0.326,-0.049 0.354,-0.055 0.382,-0.069C0.409,-0.082 0.434,-0.096 0.456,-0.111L0.456,-0.05ZM0.356,-0.306L0.356,-0.328C0.356,-0.361 0.348,-0.389 0.332,-0.411C0.316,-0.434 0.292,-0.445 0.259,-0.445C0.226,-0.445 0.198,-0.432 0.175,-0.408C0.152,-0.383 0.139,-0.349 0.136,-0.306L0.356,-0.306Z" style="fill-rule:nonzero;"/>
                </g>
                <g transform="matrix(400,0,0,400,1721.95,4950.73)">
                    <path d="M0.547,-0L0.326,-0L0.326,-0.039L0.368,-0.042C0.374,-0.043 0.379,-0.045 0.383,-0.049C0.387,-0.053 0.389,-0.058 0.389,-0.064L0.389,-0.324C0.389,-0.356 0.382,-0.38 0.367,-0.396C0.353,-0.413 0.328,-0.421 0.293,-0.421C0.274,-0.421 0.255,-0.418 0.237,-0.413C0.218,-0.407 0.2,-0.401 0.183,-0.392L0.183,-0.064C0.183,-0.05 0.19,-0.043 0.204,-0.042L0.246,-0.039L0.246,-0L0.02,-0L0.02,-0.039L0.069,-0.042C0.083,-0.043 0.09,-0.05 0.09,-0.064L0.09,-0.411L0.02,-0.411L0.02,-0.444L0.142,-0.482L0.183,-0.482L0.183,-0.432C0.211,-0.448 0.24,-0.462 0.269,-0.475C0.299,-0.488 0.325,-0.494 0.348,-0.494C0.392,-0.494 0.425,-0.481 0.448,-0.453C0.471,-0.426 0.482,-0.388 0.482,-0.34L0.482,-0.064C0.482,-0.058 0.484,-0.053 0.488,-0.049C0.492,-0.045 0.497,-0.043 0.503,-0.042L0.547,-0.039L0.547,-0Z" style="fill-rule:nonzero;"/>
                </g>
                <g transform="matrix(400,0,0,400,1948.71,4950.73)">
                    <path d="M0.333,-0.021C0.333,-0.021 0.327,-0.018 0.314,-0.013C0.302,-0.007 0.285,-0.002 0.265,0.004C0.245,0.009 0.222,0.012 0.198,0.012C0.161,0.012 0.134,0.003 0.116,-0.014C0.099,-0.032 0.091,-0.061 0.091,-0.1L0.091,-0.432L0.027,-0.432L0.027,-0.465L0.095,-0.497L0.14,-0.603L0.184,-0.603L0.184,-0.482L0.325,-0.482L0.325,-0.432L0.184,-0.432L0.184,-0.153C0.184,-0.113 0.191,-0.085 0.204,-0.069C0.217,-0.052 0.237,-0.044 0.264,-0.044C0.284,-0.044 0.3,-0.047 0.313,-0.052C0.326,-0.058 0.333,-0.061 0.333,-0.061L0.333,-0.021Z" style="fill-rule:nonzero;"/>
                </g>
                <g transform="matrix(400,0,0,400,2084.65,4950.73)">
                    <path d="M0.218,-0.647C0.218,-0.63 0.212,-0.615 0.2,-0.603C0.188,-0.591 0.174,-0.585 0.157,-0.585C0.14,-0.585 0.126,-0.591 0.114,-0.603C0.101,-0.615 0.095,-0.63 0.095,-0.647C0.095,-0.664 0.101,-0.679 0.114,-0.69C0.126,-0.702 0.14,-0.708 0.157,-0.708C0.174,-0.708 0.188,-0.702 0.2,-0.69C0.212,-0.679 0.218,-0.664 0.218,-0.647ZM0.269,-0L0.034,-0L0.034,-0.039L0.083,-0.042C0.097,-0.043 0.104,-0.05 0.104,-0.064L0.104,-0.421L0.035,-0.421L0.035,-0.456L0.157,-0.494L0.197,-0.494L0.197,-0.064C0.197,-0.058 0.199,-0.053 0.203,-0.049C0.207,-0.045 0.212,-0.042 0.218,-0.042L0.269,-0.039L0.269,-0Z" style="fill-rule:nonzero;"/>
                </g>
                <g transform="matrix(400,0,0,400,2205.94,4950.73)">
                    <path d="M0.545,-0.647C0.545,-0.63 0.539,-0.615 0.527,-0.603C0.515,-0.591 0.5,-0.585 0.483,-0.585C0.466,-0.585 0.452,-0.591 0.44,-0.603C0.428,-0.615 0.422,-0.63 0.422,-0.647C0.422,-0.664 0.428,-0.679 0.44,-0.69C0.452,-0.702 0.466,-0.708 0.483,-0.708C0.5,-0.708 0.515,-0.702 0.527,-0.69C0.539,-0.679 0.545,-0.664 0.545,-0.647ZM0.595,-0L0.361,-0L0.361,-0.039L0.41,-0.042C0.416,-0.043 0.421,-0.045 0.425,-0.049C0.429,-0.053 0.431,-0.058 0.431,-0.064L0.431,-0.423L0.192,-0.423L0.192,-0.064C0.192,-0.058 0.194,-0.053 0.198,-0.049C0.202,-0.045 0.207,-0.043 0.213,-0.042L0.272,-0.039L0.272,-0L0.029,-0L0.029,-0.039L0.078,-0.042C0.084,-0.043 0.089,-0.045 0.093,-0.049C0.097,-0.053 0.099,-0.058 0.099,-0.064L0.099,-0.423L0.035,-0.423L0.035,-0.458L0.099,-0.476C0.099,-0.509 0.102,-0.536 0.107,-0.558C0.112,-0.58 0.12,-0.602 0.133,-0.626C0.152,-0.664 0.177,-0.692 0.208,-0.71C0.239,-0.728 0.271,-0.737 0.303,-0.737C0.332,-0.737 0.353,-0.731 0.367,-0.719C0.382,-0.707 0.389,-0.693 0.389,-0.677C0.389,-0.663 0.386,-0.653 0.379,-0.645C0.372,-0.638 0.365,-0.632 0.358,-0.629C0.35,-0.626 0.345,-0.624 0.343,-0.623C0.342,-0.624 0.337,-0.628 0.327,-0.634C0.318,-0.641 0.308,-0.648 0.296,-0.656C0.285,-0.664 0.274,-0.672 0.265,-0.678C0.256,-0.684 0.252,-0.688 0.251,-0.688C0.237,-0.681 0.224,-0.665 0.212,-0.643C0.2,-0.62 0.194,-0.585 0.193,-0.538L0.192,-0.474L0.408,-0.474L0.483,-0.493L0.524,-0.493L0.524,-0.064C0.524,-0.058 0.526,-0.053 0.53,-0.049C0.534,-0.045 0.539,-0.043 0.545,-0.042L0.595,-0.039L0.595,-0Z" style="fill-rule:nonzero;"/>
                </g>
                <g transform="matrix(400,0,0,400,2457.5,4950.73)">
                    <path d="M0.456,-0.05C0.428,-0.033 0.398,-0.018 0.365,-0.006C0.333,0.006 0.3,0.012 0.266,0.012C0.226,0.012 0.188,0.003 0.153,-0.015C0.117,-0.033 0.089,-0.06 0.067,-0.097C0.045,-0.134 0.034,-0.18 0.034,-0.236C0.034,-0.288 0.044,-0.333 0.064,-0.372C0.085,-0.411 0.112,-0.441 0.148,-0.462C0.183,-0.483 0.224,-0.494 0.269,-0.494C0.331,-0.494 0.378,-0.475 0.409,-0.436C0.44,-0.398 0.456,-0.349 0.456,-0.289L0.456,-0.276C0.456,-0.271 0.456,-0.266 0.455,-0.261L0.131,-0.261C0.131,-0.236 0.134,-0.211 0.139,-0.185C0.144,-0.16 0.153,-0.137 0.166,-0.117C0.179,-0.096 0.196,-0.08 0.217,-0.067C0.239,-0.055 0.266,-0.049 0.298,-0.049C0.326,-0.049 0.354,-0.055 0.382,-0.069C0.409,-0.082 0.434,-0.096 0.456,-0.111L0.456,-0.05ZM0.356,-0.306L0.356,-0.328C0.356,-0.361 0.348,-0.389 0.332,-0.411C0.316,-0.434 0.292,-0.445 0.259,-0.445C0.226,-0.445 0.198,-0.432 0.175,-0.408C0.152,-0.383 0.139,-0.349 0.136,-0.306L0.356,-0.306Z" style="fill-rule:nonzero;"/>
                </g>
                <g transform="matrix(400,0,0,400,2653.59,4950.73)">
                    <path d="M0.381,-0.38L0.342,-0.38C0.336,-0.387 0.328,-0.394 0.32,-0.399C0.311,-0.405 0.3,-0.407 0.288,-0.407C0.272,-0.407 0.256,-0.402 0.239,-0.391C0.222,-0.38 0.205,-0.364 0.188,-0.345L0.188,-0.064C0.188,-0.05 0.195,-0.043 0.209,-0.042L0.275,-0.039L0.275,-0L0.025,-0L0.025,-0.038L0.074,-0.042C0.08,-0.043 0.085,-0.045 0.089,-0.049C0.093,-0.053 0.095,-0.058 0.095,-0.064L0.095,-0.411L0.023,-0.411L0.023,-0.444L0.147,-0.482L0.188,-0.482L0.188,-0.393C0.216,-0.426 0.241,-0.451 0.262,-0.468C0.283,-0.486 0.302,-0.494 0.32,-0.494C0.33,-0.494 0.341,-0.493 0.354,-0.489C0.366,-0.486 0.375,-0.483 0.381,-0.479L0.381,-0.38Z" style="fill-rule:nonzero;"/>
                </g>
            </g>
            <g transform="matrix(1.09307,-1.37349e-16,-6.03184e-16,1.17366,5230.68,-4300.38)">
                <g transform="matrix(400,0,0,400,1269.76,4950.73)">
                    <path d="M0.538,-0L0.381,-0L0.381,-0.053C0.358,-0.036 0.334,-0.02 0.308,-0.007C0.282,0.006 0.255,0.012 0.226,0.012C0.193,0.012 0.164,0.005 0.139,-0.009C0.115,-0.023 0.095,-0.042 0.08,-0.065C0.064,-0.089 0.053,-0.115 0.045,-0.143C0.038,-0.171 0.034,-0.2 0.034,-0.228C0.034,-0.273 0.043,-0.316 0.062,-0.357C0.081,-0.397 0.109,-0.43 0.146,-0.456C0.184,-0.481 0.232,-0.494 0.289,-0.494C0.305,-0.494 0.322,-0.493 0.341,-0.49C0.36,-0.486 0.373,-0.484 0.381,-0.482L0.381,-0.665L0.305,-0.665L0.305,-0.698L0.434,-0.737L0.474,-0.737L0.474,-0.064C0.474,-0.05 0.481,-0.043 0.495,-0.042L0.538,-0.039L0.538,-0ZM0.381,-0.091L0.381,-0.431C0.372,-0.434 0.36,-0.437 0.343,-0.441C0.326,-0.444 0.311,-0.446 0.296,-0.446C0.246,-0.446 0.207,-0.427 0.177,-0.391C0.148,-0.354 0.133,-0.306 0.133,-0.245C0.133,-0.191 0.146,-0.146 0.171,-0.11C0.196,-0.074 0.232,-0.056 0.278,-0.056C0.298,-0.056 0.317,-0.06 0.335,-0.068C0.352,-0.075 0.368,-0.083 0.381,-0.091Z" style="fill-rule:nonzero;"/>
                </g>
                <g transform="matrix(400,0,0,400,1495.35,4950.73)">
                    <path d="M0.218,-0.647C0.218,-0.63 0.212,-0.615 0.2,-0.603C0.188,-0.591 0.174,-0.585 0.157,-0.585C0.14,-0.585 0.126,-0.591 0.114,-0.603C0.101,-0.615 0.095,-0.63 0.095,-0.647C0.095,-0.664 0.101,-0.679 0.114,-0.69C0.126,-0.702 0.14,-0.708 0.157,-0.708C0.174,-0.708 0.188,-0.702 0.2,-0.69C0.212,-0.679 0.218,-0.664 0.218,-0.647ZM0.269,-0L0.034,-0L0.034,-0.039L0.083,-0.042C0.097,-0.043 0.104,-0.05 0.104,-0.064L0.104,-0.421L0.035,-0.421L0.035,-0.456L0.157,-0.494L0.197,-0.494L0.197,-0.064C0.197,-0.058 0.199,-0.053 0.203,-0.049C0.207,-0.045 0.212,-0.042 0.218,-0.042L0.269,-0.039L0.269,-0Z" style="fill-rule:nonzero;"/>
                </g>
                <g transform="matrix(400,0,0,400,1616.64,4950.73)">
                    <path d="M0.492,-0L0.344,-0L0.331,-0.059C0.331,-0.059 0.326,-0.056 0.316,-0.048C0.306,-0.041 0.293,-0.033 0.277,-0.023C0.261,-0.014 0.243,-0.006 0.223,0.001C0.203,0.009 0.184,0.012 0.164,0.012C0.128,0.012 0.097,0 0.072,-0.024C0.047,-0.048 0.034,-0.081 0.034,-0.123C0.034,-0.142 0.038,-0.159 0.044,-0.175C0.051,-0.191 0.064,-0.206 0.084,-0.22C0.104,-0.235 0.134,-0.249 0.174,-0.263C0.213,-0.277 0.266,-0.291 0.331,-0.305L0.331,-0.348C0.331,-0.414 0.3,-0.447 0.238,-0.447C0.221,-0.447 0.206,-0.445 0.193,-0.442C0.181,-0.439 0.172,-0.436 0.167,-0.434L0.167,-0.347L0.094,-0.347C0.085,-0.347 0.077,-0.349 0.069,-0.352C0.061,-0.356 0.057,-0.364 0.057,-0.376C0.057,-0.403 0.068,-0.426 0.088,-0.443C0.109,-0.461 0.136,-0.473 0.168,-0.482C0.2,-0.49 0.232,-0.494 0.265,-0.494C0.306,-0.494 0.339,-0.488 0.361,-0.475C0.384,-0.462 0.4,-0.444 0.409,-0.422C0.418,-0.399 0.423,-0.373 0.423,-0.344L0.423,-0.064C0.423,-0.058 0.425,-0.053 0.429,-0.049C0.433,-0.045 0.438,-0.043 0.444,-0.042L0.492,-0.039L0.492,-0ZM0.331,-0.094L0.331,-0.267C0.286,-0.256 0.25,-0.245 0.224,-0.234C0.197,-0.222 0.178,-0.211 0.165,-0.2C0.152,-0.189 0.143,-0.177 0.139,-0.166C0.135,-0.154 0.133,-0.142 0.133,-0.13C0.133,-0.109 0.139,-0.09 0.153,-0.073C0.166,-0.056 0.184,-0.047 0.208,-0.047C0.221,-0.047 0.235,-0.049 0.25,-0.054C0.264,-0.059 0.277,-0.064 0.29,-0.071C0.302,-0.077 0.312,-0.082 0.32,-0.087C0.327,-0.092 0.331,-0.094 0.331,-0.094Z" style="fill-rule:nonzero;"/>
                </g>
                <g transform="matrix(400,0,0,400,1820.15,4950.73)">
                    <path d="M0.27,-0L0.027,-0L0.027,-0.039L0.08,-0.042C0.085,-0.042 0.089,-0.045 0.094,-0.05C0.1,-0.054 0.102,-0.059 0.102,-0.063L0.102,-0.665L0.026,-0.665L0.026,-0.698L0.154,-0.737L0.195,-0.737L0.195,-0.063C0.195,-0.059 0.197,-0.054 0.202,-0.05C0.207,-0.045 0.212,-0.042 0.216,-0.042L0.27,-0.039L0.27,-0Z" style="fill-rule:nonzero;"/>
                </g>
                <g transform="matrix(400,0,0,400,1938.9,4950.73)">
                    <path d="M0.456,-0.05C0.428,-0.033 0.398,-0.018 0.365,-0.006C0.333,0.006 0.3,0.012 0.266,0.012C0.226,0.012 0.188,0.003 0.153,-0.015C0.117,-0.033 0.089,-0.06 0.067,-0.097C0.045,-0.134 0.034,-0.18 0.034,-0.236C0.034,-0.288 0.044,-0.333 0.064,-0.372C0.085,-0.411 0.112,-0.441 0.148,-0.462C0.183,-0.483 0.224,-0.494 0.269,-0.494C0.331,-0.494 0.378,-0.475 0.409,-0.436C0.44,-0.398 0.456,-0.349 0.456,-0.289L0.456,-0.276C0.456,-0.271 0.456,-0.266 0.455,-0.261L0.131,-0.261C0.131,-0.236 0.134,-0.211 0.139,-0.185C0.144,-0.16 0.153,-0.137 0.166,-0.117C0.179,-0.096 0.196,-0.08 0.217,-0.067C0.239,-0.055 0.266,-0.049 0.298,-0.049C0.326,-0.049 0.354,-0.055 0.382,-0.069C0.409,-0.082 0.434,-0.096 0.456,-0.111L0.456,-0.05ZM0.356,-0.306L0.356,-0.328C0.356,-0.361 0.348,-0.389 0.332,-0.411C0.316,-0.434 0.292,-0.445 0.259,-0.445C0.226,-0.445 0.198,-0.432 0.175,-0.408C0.152,-0.383 0.139,-0.349 0.136,-0.306L0.356,-0.306Z" style="fill-rule:nonzero;"/>
                </g>
                <g transform="matrix(400,0,0,400,2135,4950.73)">
                    <path d="M0.432,-0.037C0.41,-0.025 0.384,-0.014 0.356,-0.003C0.328,0.007 0.297,0.012 0.263,0.012C0.217,0.012 0.176,0.001 0.142,-0.021C0.108,-0.042 0.081,-0.072 0.062,-0.11C0.044,-0.147 0.034,-0.19 0.034,-0.238C0.034,-0.294 0.045,-0.341 0.068,-0.379C0.09,-0.417 0.119,-0.446 0.156,-0.465C0.193,-0.484 0.232,-0.494 0.275,-0.494C0.319,-0.494 0.356,-0.486 0.385,-0.469C0.415,-0.451 0.43,-0.427 0.43,-0.394C0.43,-0.375 0.424,-0.36 0.412,-0.35C0.4,-0.34 0.386,-0.335 0.371,-0.335C0.36,-0.335 0.35,-0.337 0.342,-0.341C0.334,-0.344 0.327,-0.348 0.321,-0.352L0.321,-0.439C0.306,-0.448 0.292,-0.452 0.279,-0.452C0.249,-0.452 0.224,-0.443 0.202,-0.426C0.181,-0.409 0.165,-0.385 0.153,-0.354C0.142,-0.324 0.136,-0.29 0.136,-0.251C0.136,-0.214 0.142,-0.181 0.155,-0.15C0.167,-0.12 0.186,-0.096 0.21,-0.078C0.235,-0.06 0.265,-0.051 0.302,-0.051C0.325,-0.051 0.347,-0.055 0.368,-0.062C0.389,-0.069 0.411,-0.08 0.432,-0.094L0.432,-0.037Z" style="fill-rule:nonzero;"/>
                </g>
                <g transform="matrix(400,0,0,400,2321.32,4950.73)">
                    <path d="M0.333,-0.021C0.333,-0.021 0.327,-0.018 0.314,-0.013C0.302,-0.007 0.285,-0.002 0.265,0.004C0.245,0.009 0.222,0.012 0.198,0.012C0.161,0.012 0.134,0.003 0.116,-0.014C0.099,-0.032 0.091,-0.061 0.091,-0.1L0.091,-0.432L0.027,-0.432L0.027,-0.465L0.095,-0.497L0.14,-0.603L0.184,-0.603L0.184,-0.482L0.325,-0.482L0.325,-0.432L0.184,-0.432L0.184,-0.153C0.184,-0.113 0.191,-0.085 0.204,-0.069C0.217,-0.052 0.237,-0.044 0.264,-0.044C0.284,-0.044 0.3,-0.047 0.313,-0.052C0.326,-0.058 0.333,-0.061 0.333,-0.061L0.333,-0.021Z" style="fill-rule:nonzero;"/>
                </g>
            </g>
            <g transform="matrix(1.09307,-1.54143e-16,-6.0928e-16,1.17366,1325.45,-2510.94)">
                <g transform="matrix(400,0,0,400,1153.69,4950.73)">
                    <path d="M0.828,-0L0.604,-0L0.604,-0.039L0.646,-0.042C0.66,-0.043 0.667,-0.05 0.667,-0.064L0.667,-0.319C0.667,-0.35 0.661,-0.375 0.648,-0.393C0.635,-0.412 0.612,-0.421 0.578,-0.421C0.562,-0.421 0.543,-0.418 0.524,-0.413C0.504,-0.408 0.486,-0.401 0.471,-0.393L0.471,-0.064C0.471,-0.05 0.478,-0.043 0.492,-0.042L0.534,-0.039L0.534,-0L0.315,-0L0.315,-0.039L0.357,-0.042C0.371,-0.043 0.378,-0.05 0.378,-0.064L0.378,-0.325C0.378,-0.354 0.371,-0.377 0.358,-0.394C0.345,-0.412 0.322,-0.421 0.29,-0.421C0.271,-0.421 0.251,-0.418 0.231,-0.411C0.21,-0.405 0.194,-0.399 0.183,-0.392L0.183,-0.064C0.183,-0.05 0.19,-0.043 0.204,-0.042L0.246,-0.039L0.246,-0L0.02,-0L0.02,-0.039L0.069,-0.042C0.083,-0.043 0.09,-0.05 0.09,-0.064L0.09,-0.411L0.021,-0.411L0.021,-0.444L0.142,-0.482L0.183,-0.482L0.183,-0.432C0.198,-0.441 0.215,-0.451 0.234,-0.46C0.252,-0.469 0.271,-0.477 0.291,-0.484C0.311,-0.491 0.329,-0.494 0.346,-0.494C0.375,-0.494 0.399,-0.487 0.417,-0.472C0.434,-0.457 0.448,-0.441 0.456,-0.425C0.469,-0.433 0.486,-0.443 0.507,-0.454C0.527,-0.465 0.549,-0.474 0.571,-0.482C0.593,-0.49 0.612,-0.494 0.63,-0.494C0.665,-0.494 0.692,-0.486 0.71,-0.47C0.729,-0.454 0.742,-0.434 0.749,-0.41C0.755,-0.387 0.759,-0.364 0.759,-0.341L0.759,-0.064C0.759,-0.058 0.761,-0.053 0.765,-0.049C0.769,-0.045 0.774,-0.043 0.78,-0.042L0.828,-0.039L0.828,-0Z" style="fill:rgb(97,95,95);fill-rule:nonzero;"/>
                </g>
                <g transform="matrix(400,0,0,400,1493.73,4950.73)">
                    <path d="M0.51,-0.24C0.51,-0.193 0.5,-0.15 0.48,-0.112C0.461,-0.074 0.433,-0.044 0.398,-0.021C0.362,0.001 0.32,0.012 0.271,0.012C0.222,0.012 0.181,0.001 0.145,-0.021C0.11,-0.043 0.082,-0.073 0.063,-0.111C0.044,-0.149 0.034,-0.192 0.034,-0.24C0.034,-0.288 0.044,-0.331 0.063,-0.369C0.083,-0.408 0.11,-0.438 0.146,-0.46C0.182,-0.483 0.225,-0.494 0.274,-0.494C0.324,-0.494 0.366,-0.483 0.401,-0.46C0.437,-0.437 0.463,-0.407 0.482,-0.368C0.5,-0.33 0.51,-0.287 0.51,-0.24ZM0.406,-0.241C0.406,-0.278 0.401,-0.312 0.391,-0.343C0.382,-0.375 0.367,-0.4 0.347,-0.42C0.328,-0.439 0.303,-0.449 0.273,-0.449C0.242,-0.449 0.217,-0.439 0.197,-0.42C0.177,-0.4 0.163,-0.375 0.153,-0.343C0.144,-0.312 0.139,-0.278 0.139,-0.241C0.139,-0.205 0.144,-0.171 0.154,-0.139C0.163,-0.108 0.178,-0.082 0.198,-0.063C0.217,-0.043 0.242,-0.033 0.272,-0.033C0.303,-0.033 0.328,-0.043 0.347,-0.063C0.367,-0.082 0.382,-0.108 0.391,-0.139C0.401,-0.171 0.406,-0.205 0.406,-0.241Z" style="fill:rgb(97,95,95);fill-rule:nonzero;"/>
                </g>
                <g transform="matrix(400,0,0,400,1711.31,4950.73)">
                    <path d="M0.538,-0L0.381,-0L0.381,-0.053C0.358,-0.036 0.334,-0.02 0.308,-0.007C0.282,0.006 0.255,0.012 0.226,0.012C0.193,0.012 0.164,0.005 0.139,-0.009C0.115,-0.023 0.095,-0.042 0.08,-0.065C0.064,-0.089 0.053,-0.115 0.045,-0.143C0.038,-0.171 0.034,-0.2 0.034,-0.228C0.034,-0.273 0.043,-0.316 0.062,-0.357C0.081,-0.397 0.109,-0.43 0.146,-0.456C0.184,-0.481 0.232,-0.494 0.289,-0.494C0.305,-0.494 0.322,-0.493 0.341,-0.49C0.36,-0.486 0.373,-0.484 0.381,-0.482L0.381,-0.665L0.305,-0.665L0.305,-0.698L0.434,-0.737L0.474,-0.737L0.474,-0.064C0.474,-0.05 0.481,-0.043 0.495,-0.042L0.538,-0.039L0.538,-0ZM0.381,-0.091L0.381,-0.431C0.372,-0.434 0.36,-0.437 0.343,-0.441C0.326,-0.444 0.311,-0.446 0.296,-0.446C0.246,-0.446 0.207,-0.427 0.177,-0.391C0.148,-0.354 0.133,-0.306 0.133,-0.245C0.133,-0.191 0.146,-0.146 0.171,-0.11C0.196,-0.074 0.232,-0.056 0.278,-0.056C0.298,-0.056 0.317,-0.06 0.335,-0.068C0.352,-0.075 0.368,-0.083 0.381,-0.091Z" style="fill:rgb(97,95,95);fill-rule:nonzero;"/>
                </g>
                <g transform="matrix(400,0,0,400,1936.89,4950.73)">
                    <path d="M0.456,-0.05C0.428,-0.033 0.398,-0.018 0.365,-0.006C0.333,0.006 0.3,0.012 0.266,0.012C0.226,0.012 0.188,0.003 0.153,-0.015C0.117,-0.033 0.089,-0.06 0.067,-0.097C0.045,-0.134 0.034,-0.18 0.034,-0.236C0.034,-0.288 0.044,-0.333 0.064,-0.372C0.085,-0.411 0.112,-0.441 0.148,-0.462C0.183,-0.483 0.224,-0.494 0.269,-0.494C0.331,-0.494 0.378,-0.475 0.409,-0.436C0.44,-0.398 0.456,-0.349 0.456,-0.289L0.456,-0.276C0.456,-0.271 0.456,-0.266 0.455,-0.261L0.131,-0.261C0.131,-0.236 0.134,-0.211 0.139,-0.185C0.144,-0.16 0.153,-0.137 0.166,-0.117C0.179,-0.096 0.196,-0.08 0.217,-0.067C0.239,-0.055 0.266,-0.049 0.298,-0.049C0.326,-0.049 0.354,-0.055 0.382,-0.069C0.409,-0.082 0.434,-0.096 0.456,-0.111L0.456,-0.05ZM0.356,-0.306L0.356,-0.328C0.356,-0.361 0.348,-0.389 0.332,-0.411C0.316,-0.434 0.292,-0.445 0.259,-0.445C0.226,-0.445 0.198,-0.432 0.175,-0.408C0.152,-0.383 0.139,-0.349 0.136,-0.306L0.356,-0.306Z" style="fill:rgb(97,95,95);fill-rule:nonzero;"/>
                </g>
                <g transform="matrix(400,0,0,400,2132.99,4950.73)">
                    <path d="M0.381,-0.38L0.342,-0.38C0.336,-0.387 0.328,-0.394 0.32,-0.399C0.311,-0.405 0.3,-0.407 0.288,-0.407C0.272,-0.407 0.256,-0.402 0.239,-0.391C0.222,-0.38 0.205,-0.364 0.188,-0.345L0.188,-0.064C0.188,-0.05 0.195,-0.043 0.209,-0.042L0.275,-0.039L0.275,-0L0.025,-0L0.025,-0.038L0.074,-0.042C0.08,-0.043 0.085,-0.045 0.089,-0.049C0.093,-0.053 0.095,-0.058 0.095,-0.064L0.095,-0.411L0.023,-0.411L0.023,-0.444L0.147,-0.482L0.188,-0.482L0.188,-0.393C0.216,-0.426 0.241,-0.451 0.262,-0.468C0.283,-0.486 0.302,-0.494 0.32,-0.494C0.33,-0.494 0.341,-0.493 0.354,-0.489C0.366,-0.486 0.375,-0.483 0.381,-0.479L0.381,-0.38Z" style="fill:rgb(97,95,95);fill-rule:nonzero;"/>
                </g>
                <g transform="matrix(400,0,0,400,2289.43,4950.73)">
                    <path d="M0.547,-0L0.326,-0L0.326,-0.039L0.368,-0.042C0.374,-0.043 0.379,-0.045 0.383,-0.049C0.387,-0.053 0.389,-0.058 0.389,-0.064L0.389,-0.324C0.389,-0.356 0.382,-0.38 0.367,-0.396C0.353,-0.413 0.328,-0.421 0.293,-0.421C0.274,-0.421 0.255,-0.418 0.237,-0.413C0.218,-0.407 0.2,-0.401 0.183,-0.392L0.183,-0.064C0.183,-0.05 0.19,-0.043 0.204,-0.042L0.246,-0.039L0.246,-0L0.02,-0L0.02,-0.039L0.069,-0.042C0.083,-0.043 0.09,-0.05 0.09,-0.064L0.09,-0.411L0.02,-0.411L0.02,-0.444L0.142,-0.482L0.183,-0.482L0.183,-0.432C0.211,-0.448 0.24,-0.462 0.269,-0.475C0.299,-0.488 0.325,-0.494 0.348,-0.494C0.392,-0.494 0.425,-0.481 0.448,-0.453C0.471,-0.426 0.482,-0.388 0.482,-0.34L0.482,-0.064C0.482,-0.058 0.484,-0.053 0.488,-0.049C0.492,-0.045 0.497,-0.043 0.503,-0.042L0.547,-0.039L0.547,-0Z" style="fill:rgb(97,95,95);fill-rule:nonzero;"/>
                </g>
            </g>
            <g transform="matrix(1.09307,-1.38439e-16,-5.98438e-16,1.17366,3152.75,-2501.17)">
                <g transform="matrix(400,0,0,400,1163.18,4950.73)">
                    <path d="M0.935,-0.494L0.935,-0.171C0.935,-0.046 0.865,0.016 0.725,0.016C0.664,0.016 0.617,0.001 0.585,-0.029C0.552,-0.059 0.536,-0.106 0.536,-0.171L0.536,-0.327L0.207,-0.327L0.207,-0.069C0.207,-0.064 0.209,-0.059 0.212,-0.055C0.216,-0.05 0.221,-0.048 0.228,-0.047L0.285,-0.043L0.285,-0L0.032,-0L0.032,-0.043L0.084,-0.047C0.091,-0.048 0.097,-0.05 0.1,-0.055C0.104,-0.059 0.106,-0.064 0.106,-0.069L0.106,-0.602C0.106,-0.607 0.104,-0.612 0.1,-0.616C0.097,-0.62 0.091,-0.623 0.084,-0.623L0.032,-0.627L0.032,-0.671L0.285,-0.671L0.285,-0.627L0.228,-0.623C0.221,-0.623 0.216,-0.62 0.212,-0.616C0.209,-0.612 0.207,-0.607 0.207,-0.602L0.207,-0.377L0.536,-0.377L0.536,-0.602C0.536,-0.607 0.534,-0.612 0.531,-0.616C0.527,-0.62 0.522,-0.623 0.515,-0.623L0.458,-0.627L0.458,-0.671L0.711,-0.671L0.711,-0.627L0.659,-0.623C0.652,-0.623 0.647,-0.62 0.643,-0.616C0.639,-0.612 0.637,-0.607 0.637,-0.602L0.637,-0.176C0.637,-0.126 0.647,-0.091 0.667,-0.071C0.688,-0.051 0.713,-0.042 0.744,-0.042C0.771,-0.042 0.794,-0.051 0.813,-0.071C0.832,-0.091 0.842,-0.126 0.842,-0.176L0.842,-0.421L0.771,-0.421L0.771,-0.455L0.894,-0.494L0.935,-0.494Z" style="fill:rgb(95,95,95);fill-rule:nonzero;"/>
                </g>
                <g transform="matrix(400,0,0,400,1567.86,4950.73)">
                    <path d="M0.218,-0.647C0.218,-0.63 0.212,-0.615 0.2,-0.603C0.188,-0.591 0.174,-0.585 0.157,-0.585C0.14,-0.585 0.126,-0.591 0.114,-0.603C0.101,-0.615 0.095,-0.63 0.095,-0.647C0.095,-0.664 0.101,-0.679 0.114,-0.69C0.126,-0.702 0.14,-0.708 0.157,-0.708C0.174,-0.708 0.188,-0.702 0.2,-0.69C0.212,-0.679 0.218,-0.664 0.218,-0.647ZM0.269,-0L0.034,-0L0.034,-0.039L0.083,-0.042C0.097,-0.043 0.104,-0.05 0.104,-0.064L0.104,-0.421L0.035,-0.421L0.035,-0.456L0.157,-0.494L0.197,-0.494L0.197,-0.064C0.197,-0.058 0.199,-0.053 0.203,-0.049C0.207,-0.045 0.212,-0.042 0.218,-0.042L0.269,-0.039L0.269,-0Z" style="fill:rgb(95,95,95);fill-rule:nonzero;"/>
                </g>
                <g transform="matrix(400,0,0,400,1689.15,4950.73)">
                    <path d="M0.525,-0.248C0.525,-0.196 0.515,-0.15 0.495,-0.111C0.474,-0.072 0.445,-0.042 0.408,-0.02C0.37,0.001 0.325,0.012 0.272,0.012C0.26,0.012 0.247,0.011 0.233,0.01C0.219,0.008 0.208,0.007 0.198,0.005C0.188,0.004 0.183,0.003 0.183,0.003L0.183,0.152C0.183,0.158 0.185,0.163 0.189,0.167C0.194,0.17 0.199,0.172 0.205,0.173L0.264,0.179L0.264,0.218L0.021,0.218L0.021,0.179L0.069,0.173C0.083,0.171 0.09,0.164 0.09,0.152L0.09,-0.666L0.021,-0.666L0.021,-0.699L0.144,-0.737L0.183,-0.737L0.183,-0.432C0.183,-0.432 0.187,-0.435 0.196,-0.441C0.204,-0.448 0.215,-0.455 0.229,-0.463C0.243,-0.471 0.26,-0.479 0.278,-0.485C0.296,-0.491 0.314,-0.494 0.334,-0.494C0.368,-0.494 0.4,-0.484 0.429,-0.464C0.458,-0.443 0.481,-0.415 0.499,-0.378C0.516,-0.341 0.525,-0.298 0.525,-0.248ZM0.425,-0.234C0.425,-0.268 0.42,-0.3 0.409,-0.329C0.398,-0.357 0.383,-0.38 0.362,-0.398C0.341,-0.415 0.316,-0.424 0.285,-0.424C0.269,-0.424 0.252,-0.421 0.237,-0.417C0.221,-0.412 0.208,-0.407 0.198,-0.402C0.188,-0.397 0.183,-0.394 0.183,-0.394L0.183,-0.05C0.183,-0.05 0.191,-0.047 0.208,-0.042C0.225,-0.037 0.244,-0.034 0.264,-0.034C0.301,-0.034 0.331,-0.044 0.355,-0.063C0.378,-0.081 0.396,-0.106 0.407,-0.136C0.419,-0.167 0.425,-0.199 0.425,-0.234ZM0.008,0.11L0.008,0.06L0.329,0.06L0.329,0.11L0.008,0.11Z" style="fill:rgb(95,95,95);fill-rule:nonzero;"/>
                </g>
                <g transform="matrix(400,0,0,400,1912.78,4950.73)">
                    <path d="M0.52,-0.443L0.468,-0.437L0.276,0.031C0.272,0.042 0.265,0.057 0.256,0.077C0.247,0.097 0.237,0.117 0.224,0.138C0.212,0.159 0.199,0.177 0.185,0.191C0.173,0.203 0.16,0.212 0.145,0.219C0.131,0.226 0.115,0.229 0.098,0.229C0.074,0.229 0.056,0.223 0.044,0.212C0.031,0.2 0.025,0.187 0.025,0.172C0.025,0.15 0.036,0.13 0.057,0.112L0.151,0.155C0.162,0.144 0.173,0.129 0.184,0.11C0.195,0.091 0.205,0.071 0.214,0.051C0.223,0.031 0.23,0.014 0.235,-0.001L0.065,-0.437L0.01,-0.443L0.01,-0.482L0.231,-0.482L0.231,-0.443L0.183,-0.44C0.178,-0.44 0.173,-0.437 0.17,-0.433C0.166,-0.428 0.166,-0.424 0.168,-0.418L0.284,-0.123L0.403,-0.418C0.405,-0.423 0.405,-0.428 0.402,-0.433C0.399,-0.437 0.395,-0.44 0.389,-0.44L0.342,-0.443L0.342,-0.482L0.52,-0.482L0.52,-0.443Z" style="fill:rgb(95,95,95);fill-rule:nonzero;"/>
                </g>
                <g transform="matrix(400,0,0,400,2124.7,4950.73)">
                    <path d="M0.492,-0L0.344,-0L0.331,-0.059C0.331,-0.059 0.326,-0.056 0.316,-0.048C0.306,-0.041 0.293,-0.033 0.277,-0.023C0.261,-0.014 0.243,-0.006 0.223,0.001C0.203,0.009 0.184,0.012 0.164,0.012C0.128,0.012 0.097,0 0.072,-0.024C0.047,-0.048 0.034,-0.081 0.034,-0.123C0.034,-0.142 0.038,-0.159 0.044,-0.175C0.051,-0.191 0.064,-0.206 0.084,-0.22C0.104,-0.235 0.134,-0.249 0.174,-0.263C0.213,-0.277 0.266,-0.291 0.331,-0.305L0.331,-0.348C0.331,-0.414 0.3,-0.447 0.238,-0.447C0.221,-0.447 0.206,-0.445 0.193,-0.442C0.181,-0.439 0.172,-0.436 0.167,-0.434L0.167,-0.347L0.094,-0.347C0.085,-0.347 0.077,-0.349 0.069,-0.352C0.061,-0.356 0.057,-0.364 0.057,-0.376C0.057,-0.403 0.068,-0.426 0.088,-0.443C0.109,-0.461 0.136,-0.473 0.168,-0.482C0.2,-0.49 0.232,-0.494 0.265,-0.494C0.306,-0.494 0.339,-0.488 0.361,-0.475C0.384,-0.462 0.4,-0.444 0.409,-0.422C0.418,-0.399 0.423,-0.373 0.423,-0.344L0.423,-0.064C0.423,-0.058 0.425,-0.053 0.429,-0.049C0.433,-0.045 0.438,-0.043 0.444,-0.042L0.492,-0.039L0.492,-0ZM0.331,-0.094L0.331,-0.267C0.286,-0.256 0.25,-0.245 0.224,-0.234C0.197,-0.222 0.178,-0.211 0.165,-0.2C0.152,-0.189 0.143,-0.177 0.139,-0.166C0.135,-0.154 0.133,-0.142 0.133,-0.13C0.133,-0.109 0.139,-0.09 0.153,-0.073C0.166,-0.056 0.184,-0.047 0.208,-0.047C0.221,-0.047 0.235,-0.049 0.25,-0.054C0.264,-0.059 0.277,-0.064 0.29,-0.071C0.302,-0.077 0.312,-0.082 0.32,-0.087C0.327,-0.092 0.331,-0.094 0.331,-0.094ZM0.423,-0.695C0.415,-0.666 0.402,-0.64 0.384,-0.618C0.365,-0.596 0.339,-0.585 0.307,-0.585C0.289,-0.585 0.274,-0.589 0.261,-0.597C0.249,-0.605 0.235,-0.613 0.221,-0.621C0.207,-0.629 0.189,-0.633 0.167,-0.633C0.154,-0.633 0.143,-0.628 0.133,-0.618C0.123,-0.608 0.117,-0.597 0.116,-0.585L0.076,-0.585C0.083,-0.615 0.096,-0.64 0.115,-0.662C0.134,-0.684 0.159,-0.695 0.192,-0.695C0.209,-0.695 0.225,-0.691 0.237,-0.683C0.25,-0.675 0.263,-0.667 0.277,-0.659C0.29,-0.651 0.308,-0.647 0.33,-0.647C0.343,-0.647 0.355,-0.652 0.365,-0.662C0.376,-0.672 0.382,-0.683 0.383,-0.695L0.423,-0.695Z" style="fill:rgb(95,95,95);fill-rule:nonzero;"/>
                </g>
                <g transform="matrix(400,0,0,400,2328.21,4950.73)">
                    <path d="M0.525,-0.248C0.525,-0.196 0.515,-0.15 0.495,-0.111C0.474,-0.072 0.445,-0.042 0.408,-0.02C0.37,0.001 0.325,0.012 0.272,0.012C0.257,0.012 0.242,0.011 0.228,0.009C0.213,0.007 0.198,0.005 0.183,0.003L0.183,0.152C0.183,0.158 0.185,0.163 0.189,0.167C0.194,0.17 0.199,0.172 0.205,0.173L0.264,0.179L0.264,0.218L0.021,0.218L0.021,0.179L0.069,0.173C0.083,0.171 0.09,0.164 0.09,0.152L0.09,-0.411L0.021,-0.411L0.021,-0.444L0.144,-0.482L0.183,-0.482L0.183,-0.432C0.206,-0.45 0.23,-0.464 0.257,-0.476C0.283,-0.488 0.309,-0.494 0.334,-0.494C0.368,-0.494 0.4,-0.484 0.429,-0.464C0.458,-0.443 0.481,-0.415 0.499,-0.378C0.516,-0.341 0.525,-0.298 0.525,-0.248ZM0.425,-0.234C0.425,-0.268 0.42,-0.3 0.409,-0.329C0.398,-0.357 0.383,-0.38 0.362,-0.398C0.341,-0.415 0.316,-0.424 0.285,-0.424C0.268,-0.424 0.251,-0.421 0.232,-0.415C0.214,-0.408 0.198,-0.402 0.183,-0.394L0.183,-0.05C0.21,-0.039 0.237,-0.034 0.264,-0.034C0.301,-0.034 0.331,-0.044 0.355,-0.063C0.378,-0.081 0.396,-0.106 0.407,-0.136C0.419,-0.167 0.425,-0.199 0.425,-0.234Z" style="fill:rgb(95,95,95);fill-rule:nonzero;"/>
                </g>
            </g>
            <g transform="matrix(1.09307,-1.32746e-16,-6.24103e-16,1.17366,5185.32,-2501.17)">
                <g transform="matrix(400,0,0,400,1140.85,4950.73)">
                    <path d="M0.432,-0.037C0.41,-0.025 0.384,-0.014 0.356,-0.003C0.328,0.007 0.297,0.012 0.263,0.012C0.217,0.012 0.176,0.001 0.142,-0.021C0.108,-0.042 0.081,-0.072 0.062,-0.11C0.044,-0.147 0.034,-0.19 0.034,-0.238C0.034,-0.294 0.045,-0.341 0.068,-0.379C0.09,-0.417 0.119,-0.446 0.156,-0.465C0.193,-0.484 0.232,-0.494 0.275,-0.494C0.319,-0.494 0.356,-0.486 0.385,-0.469C0.415,-0.451 0.43,-0.427 0.43,-0.394C0.43,-0.375 0.424,-0.36 0.412,-0.35C0.4,-0.34 0.386,-0.335 0.371,-0.335C0.36,-0.335 0.35,-0.337 0.342,-0.341C0.334,-0.344 0.327,-0.348 0.321,-0.352L0.321,-0.439C0.306,-0.448 0.292,-0.452 0.279,-0.452C0.249,-0.452 0.224,-0.443 0.202,-0.426C0.181,-0.409 0.165,-0.385 0.153,-0.354C0.142,-0.324 0.136,-0.29 0.136,-0.251C0.136,-0.214 0.142,-0.181 0.155,-0.15C0.167,-0.12 0.186,-0.096 0.21,-0.078C0.235,-0.06 0.265,-0.051 0.302,-0.051C0.325,-0.051 0.347,-0.055 0.368,-0.062C0.389,-0.069 0.411,-0.08 0.432,-0.094L0.432,-0.037Z" style="fill:rgb(97,95,95);fill-rule:nonzero;"/>
                </g>
                <g transform="matrix(400,0,0,400,1327.18,4950.73)">
                    <path d="M0.51,-0.24C0.51,-0.193 0.5,-0.15 0.48,-0.112C0.461,-0.074 0.433,-0.044 0.398,-0.021C0.362,0.001 0.32,0.012 0.271,0.012C0.222,0.012 0.181,0.001 0.145,-0.021C0.11,-0.043 0.082,-0.073 0.063,-0.111C0.044,-0.149 0.034,-0.192 0.034,-0.24C0.034,-0.288 0.044,-0.331 0.063,-0.369C0.083,-0.408 0.11,-0.438 0.146,-0.46C0.182,-0.483 0.225,-0.494 0.274,-0.494C0.324,-0.494 0.366,-0.483 0.401,-0.46C0.437,-0.437 0.463,-0.407 0.482,-0.368C0.5,-0.33 0.51,-0.287 0.51,-0.24ZM0.406,-0.241C0.406,-0.278 0.401,-0.312 0.391,-0.343C0.382,-0.375 0.367,-0.4 0.347,-0.42C0.328,-0.439 0.303,-0.449 0.273,-0.449C0.242,-0.449 0.217,-0.439 0.197,-0.42C0.177,-0.4 0.163,-0.375 0.153,-0.343C0.144,-0.312 0.139,-0.278 0.139,-0.241C0.139,-0.205 0.144,-0.171 0.154,-0.139C0.163,-0.108 0.178,-0.082 0.198,-0.063C0.217,-0.043 0.242,-0.033 0.272,-0.033C0.303,-0.033 0.328,-0.043 0.347,-0.063C0.367,-0.082 0.382,-0.108 0.391,-0.139C0.401,-0.171 0.406,-0.205 0.406,-0.241Z" style="fill:rgb(97,95,95);fill-rule:nonzero;"/>
                </g>
                <g transform="matrix(400,0,0,400,1544.76,4950.73)">
                    <path d="M0.828,-0L0.604,-0L0.604,-0.039L0.646,-0.042C0.66,-0.043 0.667,-0.05 0.667,-0.064L0.667,-0.319C0.667,-0.35 0.661,-0.375 0.648,-0.393C0.635,-0.412 0.612,-0.421 0.578,-0.421C0.562,-0.421 0.543,-0.418 0.524,-0.413C0.504,-0.408 0.486,-0.401 0.471,-0.393L0.471,-0.064C0.471,-0.05 0.478,-0.043 0.492,-0.042L0.534,-0.039L0.534,-0L0.315,-0L0.315,-0.039L0.357,-0.042C0.371,-0.043 0.378,-0.05 0.378,-0.064L0.378,-0.325C0.378,-0.354 0.371,-0.377 0.358,-0.394C0.345,-0.412 0.322,-0.421 0.29,-0.421C0.271,-0.421 0.251,-0.418 0.231,-0.411C0.21,-0.405 0.194,-0.399 0.183,-0.392L0.183,-0.064C0.183,-0.05 0.19,-0.043 0.204,-0.042L0.246,-0.039L0.246,-0L0.02,-0L0.02,-0.039L0.069,-0.042C0.083,-0.043 0.09,-0.05 0.09,-0.064L0.09,-0.411L0.021,-0.411L0.021,-0.444L0.142,-0.482L0.183,-0.482L0.183,-0.432C0.198,-0.441 0.215,-0.451 0.234,-0.46C0.252,-0.469 0.271,-0.477 0.291,-0.484C0.311,-0.491 0.329,-0.494 0.346,-0.494C0.375,-0.494 0.399,-0.487 0.417,-0.472C0.434,-0.457 0.448,-0.441 0.456,-0.425C0.469,-0.433 0.486,-0.443 0.507,-0.454C0.527,-0.465 0.549,-0.474 0.571,-0.482C0.593,-0.49 0.612,-0.494 0.63,-0.494C0.665,-0.494 0.692,-0.486 0.71,-0.47C0.729,-0.454 0.742,-0.434 0.749,-0.41C0.755,-0.387 0.759,-0.364 0.759,-0.341L0.759,-0.064C0.759,-0.058 0.761,-0.053 0.765,-0.049C0.769,-0.045 0.774,-0.043 0.78,-0.042L0.828,-0.039L0.828,-0Z" style="fill:rgb(97,95,95);fill-rule:nonzero;"/>
                </g>
                <g transform="matrix(400,0,0,400,1884.8,4950.73)">
                    <path d="M0.828,-0L0.604,-0L0.604,-0.039L0.646,-0.042C0.66,-0.043 0.667,-0.05 0.667,-0.064L0.667,-0.319C0.667,-0.35 0.661,-0.375 0.648,-0.393C0.635,-0.412 0.612,-0.421 0.578,-0.421C0.562,-0.421 0.543,-0.418 0.524,-0.413C0.504,-0.408 0.486,-0.401 0.471,-0.393L0.471,-0.064C0.471,-0.05 0.478,-0.043 0.492,-0.042L0.534,-0.039L0.534,-0L0.315,-0L0.315,-0.039L0.357,-0.042C0.371,-0.043 0.378,-0.05 0.378,-0.064L0.378,-0.325C0.378,-0.354 0.371,-0.377 0.358,-0.394C0.345,-0.412 0.322,-0.421 0.29,-0.421C0.271,-0.421 0.251,-0.418 0.231,-0.411C0.21,-0.405 0.194,-0.399 0.183,-0.392L0.183,-0.064C0.183,-0.05 0.19,-0.043 0.204,-0.042L0.246,-0.039L0.246,-0L0.02,-0L0.02,-0.039L0.069,-0.042C0.083,-0.043 0.09,-0.05 0.09,-0.064L0.09,-0.411L0.021,-0.411L0.021,-0.444L0.142,-0.482L0.183,-0.482L0.183,-0.432C0.198,-0.441 0.215,-0.451 0.234,-0.46C0.252,-0.469 0.271,-0.477 0.291,-0.484C0.311,-0.491 0.329,-0.494 0.346,-0.494C0.375,-0.494 0.399,-0.487 0.417,-0.472C0.434,-0.457 0.448,-0.441 0.456,-0.425C0.469,-0.433 0.486,-0.443 0.507,-0.454C0.527,-0.465 0.549,-0.474 0.571,-0.482C0.593,-0.49 0.612,-0.494 0.63,-0.494C0.665,-0.494 0.692,-0.486 0.71,-0.47C0.729,-0.454 0.742,-0.434 0.749,-0.41C0.755,-0.387 0.759,-0.364 0.759,-0.341L0.759,-0.064C0.759,-0.058 0.761,-0.053 0.765,-0.049C0.769,-0.045 0.774,-0.043 0.78,-0.042L0.828,-0.039L0.828,-0Z" style="fill:rgb(97,95,95);fill-rule:nonzero;"/>
                </g>
                <g transform="matrix(400,0,0,400,2224.84,4950.73)">
                    <path d="M0.51,-0.24C0.51,-0.193 0.5,-0.15 0.48,-0.112C0.461,-0.074 0.433,-0.044 0.398,-0.021C0.362,0.001 0.32,0.012 0.271,0.012C0.222,0.012 0.181,0.001 0.145,-0.021C0.11,-0.043 0.082,-0.073 0.063,-0.111C0.044,-0.149 0.034,-0.192 0.034,-0.24C0.034,-0.288 0.044,-0.331 0.063,-0.369C0.083,-0.408 0.11,-0.438 0.146,-0.46C0.182,-0.483 0.225,-0.494 0.274,-0.494C0.324,-0.494 0.366,-0.483 0.401,-0.46C0.437,-0.437 0.463,-0.407 0.482,-0.368C0.5,-0.33 0.51,-0.287 0.51,-0.24ZM0.406,-0.241C0.406,-0.278 0.401,-0.312 0.391,-0.343C0.382,-0.375 0.367,-0.4 0.347,-0.42C0.328,-0.439 0.303,-0.449 0.273,-0.449C0.242,-0.449 0.217,-0.439 0.197,-0.42C0.177,-0.4 0.163,-0.375 0.153,-0.343C0.144,-0.312 0.139,-0.278 0.139,-0.241C0.139,-0.205 0.144,-0.171 0.154,-0.139C0.163,-0.108 0.178,-0.082 0.198,-0.063C0.217,-0.043 0.242,-0.033 0.272,-0.033C0.303,-0.033 0.328,-0.043 0.347,-0.063C0.367,-0.082 0.382,-0.108 0.391,-0.139C0.401,-0.171 0.406,-0.205 0.406,-0.241Z" style="fill:rgb(97,95,95);fill-rule:nonzero;"/>
                </g>
                <g transform="matrix(400,0,0,400,2442.41,4950.73)">
                    <path d="M0.547,-0L0.326,-0L0.326,-0.039L0.368,-0.042C0.374,-0.043 0.379,-0.045 0.383,-0.049C0.387,-0.053 0.389,-0.058 0.389,-0.064L0.389,-0.324C0.389,-0.356 0.382,-0.38 0.367,-0.396C0.353,-0.413 0.328,-0.421 0.293,-0.421C0.274,-0.421 0.255,-0.418 0.237,-0.413C0.218,-0.407 0.2,-0.401 0.183,-0.392L0.183,-0.064C0.183,-0.05 0.19,-0.043 0.204,-0.042L0.246,-0.039L0.246,-0L0.02,-0L0.02,-0.039L0.069,-0.042C0.083,-0.043 0.09,-0.05 0.09,-0.064L0.09,-0.411L0.02,-0.411L0.02,-0.444L0.142,-0.482L0.183,-0.482L0.183,-0.432C0.211,-0.448 0.24,-0.462 0.269,-0.475C0.299,-0.488 0.325,-0.494 0.348,-0.494C0.392,-0.494 0.425,-0.481 0.448,-0.453C0.471,-0.426 0.482,-0.388 0.482,-0.34L0.482,-0.064C0.482,-0.058 0.484,-0.053 0.488,-0.049C0.492,-0.045 0.497,-0.043 0.503,-0.042L0.547,-0.039L0.547,-0Z" style="fill:rgb(97,95,95);fill-rule:nonzero;"/>
                </g>
            </g>
            <g transform="matrix(1.09307,0,0,1.17366,621.499,-3821.53)">
                <g transform="matrix(1200,0,0,1200,1961.45,5540.18)">
                    <path d="M0.828,-0L0.604,-0L0.604,-0.039L0.646,-0.042C0.66,-0.043 0.667,-0.05 0.667,-0.064L0.667,-0.319C0.667,-0.35 0.661,-0.375 0.648,-0.393C0.635,-0.412 0.612,-0.421 0.578,-0.421C0.562,-0.421 0.543,-0.418 0.524,-0.413C0.504,-0.408 0.486,-0.401 0.471,-0.393L0.471,-0.064C0.471,-0.05 0.478,-0.043 0.492,-0.042L0.534,-0.039L0.534,-0L0.315,-0L0.315,-0.039L0.357,-0.042C0.371,-0.043 0.378,-0.05 0.378,-0.064L0.378,-0.325C0.378,-0.354 0.371,-0.377 0.358,-0.394C0.345,-0.412 0.322,-0.421 0.29,-0.421C0.271,-0.421 0.251,-0.418 0.231,-0.411C0.21,-0.405 0.194,-0.399 0.183,-0.392L0.183,-0.064C0.183,-0.05 0.19,-0.043 0.204,-0.042L0.246,-0.039L0.246,-0L0.02,-0L0.02,-0.039L0.069,-0.042C0.083,-0.043 0.09,-0.05 0.09,-0.064L0.09,-0.411L0.021,-0.411L0.021,-0.444L0.142,-0.482L0.183,-0.482L0.183,-0.432C0.198,-0.441 0.215,-0.451 0.234,-0.46C0.252,-0.469 0.271,-0.477 0.291,-0.484C0.311,-0.491 0.329,-0.494 0.346,-0.494C0.375,-0.494 0.399,-0.487 0.417,-0.472C0.434,-0.457 0.448,-0.441 0.456,-0.425C0.469,-0.433 0.486,-0.443 0.507,-0.454C0.527,-0.465 0.549,-0.474 0.571,-0.482C0.593,-0.49 0.612,-0.494 0.63,-0.494C0.665,-0.494 0.692,-0.486 0.71,-0.47C0.729,-0.454 0.742,-0.434 0.749,-0.41C0.755,-0.387 0.759,-0.364 0.759,-0.341L0.759,-0.064C0.759,-0.058 0.761,-0.053 0.765,-0.049C0.769,-0.045 0.774,-0.043 0.78,-0.042L0.828,-0.039L0.828,-0Z" style="fill-rule:nonzero;"/>
                </g>
                <g transform="matrix(1200,0,0,1200,2981.57,5540.18)">
                    <path d="M0.711,-0L0.458,-0L0.458,-0.043L0.515,-0.047C0.522,-0.048 0.527,-0.05 0.531,-0.055C0.534,-0.059 0.536,-0.064 0.536,-0.069L0.536,-0.327L0.207,-0.327L0.207,-0.069C0.207,-0.064 0.209,-0.059 0.212,-0.055C0.216,-0.05 0.221,-0.048 0.228,-0.047L0.285,-0.043L0.285,-0L0.032,-0L0.032,-0.043L0.084,-0.047C0.091,-0.048 0.097,-0.05 0.1,-0.055C0.104,-0.059 0.106,-0.064 0.106,-0.069L0.106,-0.602C0.106,-0.607 0.104,-0.612 0.1,-0.616C0.097,-0.62 0.091,-0.623 0.084,-0.623L0.032,-0.627L0.032,-0.671L0.285,-0.671L0.285,-0.627L0.228,-0.623C0.221,-0.623 0.216,-0.62 0.212,-0.616C0.209,-0.612 0.207,-0.607 0.207,-0.602L0.207,-0.377L0.536,-0.377L0.536,-0.602C0.536,-0.607 0.534,-0.612 0.531,-0.616C0.527,-0.62 0.522,-0.623 0.515,-0.623L0.458,-0.627L0.458,-0.671L0.711,-0.671L0.711,-0.627L0.659,-0.623C0.652,-0.623 0.647,-0.62 0.643,-0.616C0.639,-0.612 0.637,-0.607 0.637,-0.602L0.637,-0.069C0.637,-0.064 0.639,-0.059 0.643,-0.055C0.647,-0.05 0.652,-0.048 0.659,-0.047L0.711,-0.043L0.711,-0Z" style="fill-rule:nonzero;"/>
                </g>
                <g transform="matrix(1200,0,0,1200,3873.37,5540.18)">
                    <path d="M0.583,-0.511L0.524,-0.511L0.51,-0.605C0.507,-0.616 0.502,-0.622 0.493,-0.622L0.35,-0.622L0.35,-0.069C0.35,-0.064 0.352,-0.059 0.355,-0.055C0.359,-0.05 0.364,-0.048 0.371,-0.047L0.435,-0.043L0.435,-0L0.164,-0L0.164,-0.043L0.228,-0.047C0.235,-0.048 0.24,-0.05 0.244,-0.055C0.247,-0.059 0.249,-0.064 0.249,-0.069L0.249,-0.622L0.105,-0.622C0.095,-0.622 0.089,-0.616 0.088,-0.605L0.074,-0.511L0.016,-0.511L0.016,-0.671L0.583,-0.671L0.583,-0.511Z" style="fill-rule:nonzero;"/>
                </g>
                <g transform="matrix(1200,0,0,1200,4592.31,5540.18)">
                    <path d="M0.616,-0.628L0.562,-0.618L0.361,-0.285L0.361,-0.069C0.361,-0.064 0.363,-0.059 0.366,-0.055C0.37,-0.05 0.375,-0.048 0.382,-0.047L0.446,-0.043L0.446,-0L0.176,-0L0.176,-0.043L0.238,-0.047C0.245,-0.048 0.25,-0.05 0.254,-0.055C0.258,-0.059 0.26,-0.064 0.26,-0.069L0.26,-0.27L0.068,-0.616L0.01,-0.628L0.01,-0.671L0.247,-0.671L0.247,-0.628L0.197,-0.623C0.189,-0.622 0.185,-0.619 0.184,-0.615C0.183,-0.611 0.183,-0.607 0.185,-0.603L0.326,-0.342L0.481,-0.6C0.484,-0.605 0.484,-0.61 0.481,-0.614C0.478,-0.618 0.474,-0.621 0.469,-0.621L0.413,-0.628L0.413,-0.671L0.616,-0.671L0.616,-0.628Z" style="fill-rule:nonzero;"/>
                </g>
                <g transform="matrix(1200,0,0,1200,5343.48,5540.18)">
                    <path d="M0.343,0.142C0.291,0.136 0.247,0.121 0.21,0.096C0.174,0.071 0.145,0.039 0.123,0C0.1,-0.039 0.084,-0.083 0.074,-0.132C0.064,-0.181 0.059,-0.233 0.059,-0.288C0.059,-0.342 0.064,-0.394 0.074,-0.443C0.084,-0.493 0.1,-0.537 0.123,-0.575C0.145,-0.614 0.174,-0.646 0.21,-0.671C0.247,-0.696 0.291,-0.711 0.343,-0.717L0.343,-0.673C0.272,-0.661 0.223,-0.622 0.195,-0.555C0.166,-0.488 0.152,-0.399 0.152,-0.288C0.152,-0.214 0.158,-0.15 0.17,-0.094C0.183,-0.039 0.203,0.005 0.231,0.037C0.259,0.07 0.296,0.09 0.343,0.098L0.343,0.142Z" style="fill-rule:nonzero;"/>
                </g>
                <g transform="matrix(1200,0,0,1200,5794.66,5540.18)">
                    <path d="M0.5,-0L0.285,-0L0.285,-0.039L0.319,-0.043C0.323,-0.044 0.327,-0.046 0.328,-0.05C0.33,-0.054 0.33,-0.058 0.328,-0.061L0.242,-0.189L0.144,-0.061C0.142,-0.058 0.141,-0.055 0.142,-0.05C0.143,-0.046 0.146,-0.044 0.15,-0.043L0.2,-0.039L0.2,-0L0.01,-0L0.01,-0.039L0.067,-0.047L0.21,-0.233L0.074,-0.434L0.015,-0.443L0.015,-0.482L0.235,-0.482L0.235,-0.443L0.2,-0.438C0.196,-0.438 0.192,-0.435 0.19,-0.431C0.188,-0.427 0.188,-0.424 0.19,-0.42L0.269,-0.308L0.356,-0.42C0.359,-0.423 0.359,-0.427 0.358,-0.431C0.357,-0.435 0.354,-0.438 0.349,-0.438L0.306,-0.443L0.306,-0.482L0.486,-0.482L0.486,-0.443L0.432,-0.434L0.298,-0.263L0.446,-0.047L0.5,-0.039L0.5,-0Z" style="fill-rule:nonzero;"/>
                </g>
                <g transform="matrix(1200,0,0,1200,6406.38,5540.18)">
                    <path d="M0.318,-0.288C0.318,-0.233 0.313,-0.181 0.303,-0.132C0.293,-0.083 0.277,-0.039 0.254,0C0.232,0.039 0.203,0.071 0.167,0.096C0.131,0.121 0.087,0.136 0.034,0.142L0.034,0.098C0.081,0.09 0.118,0.07 0.146,0.037C0.174,0.005 0.194,-0.039 0.206,-0.094C0.218,-0.15 0.224,-0.214 0.224,-0.288C0.224,-0.362 0.218,-0.426 0.206,-0.481C0.194,-0.536 0.174,-0.58 0.146,-0.613C0.118,-0.645 0.081,-0.665 0.034,-0.673L0.034,-0.717C0.087,-0.711 0.131,-0.696 0.167,-0.671C0.203,-0.646 0.232,-0.614 0.254,-0.575C0.277,-0.537 0.293,-0.493 0.303,-0.443C0.313,-0.394 0.318,-0.342 0.318,-0.288Z" style="fill-rule:nonzero;"/>
                </g>
            </g>
        </g>
    </g>
</svg>
